<svg viewBox="0 0 24 24" width="32" height="32" xmlns="http://www.w3.org/2000/svg" xmlns:xlink="http://www.w3.org/1999/xlink">
    <path fill="currentColor" d="M4 21h9.62c0.5771 3e-4 1.1474-0.1244 1.6716-0.3656 0.5243-0.2411 0.9901-0.593 1.3654-1.0314l5.102-5.952c0.1068-0.1244 0.1814-0.2732 0.2172-0.4332 0.0358-0.1601 0.0317-0.3265-0.012-0.4845-0.0436-0.1581-0.1255-0.303-0.2384-0.422s-0.2532-0.2084-0.4088-0.2603l-1.968-0.656c-0.4756-0.1546-0.9821-0.1896-1.4745-0.1018-0.4924 0.0877-0.9555 0.2954-1.3485 0.6048l-3.185 2.547-0.617-1.235c-0.3305-0.6657-0.8409-1.2256-1.4733-1.6162C10.6184 11.2032 9.8893 10.9975 9.146 11H4c-1.103 0-2 0.897-2 2v6c0 1.103 0.897 2 2 2zM4 13h5.146c0.763 0 1.448 0.423 1.789 1.105L11.382 15H7v2h6.014c0.1539-2e-3 0.3051-0.0397 0.442-0.11l3e-3-1e-3 4e-3-2e-3h3e-3l2e-3-1e-3h4e-3l1e-3-1e-3c9e-3 3e-3 3e-3-1e-3 3e-3-1e-3 0.01 0 2e-3-1e-3 2e-3-1e-3h1e-3l2e-3-1e-3 3e-3-1e-3 4e-3-2e-3 3e-3-1e-3 2e-3-1e-3c3e-3 0 2e-3-1e-3 2e-3-1e-3l3e-3-2e-3 4e-3-2e-3 3e-3-1e-3 2e-3-1e-3h1e-3l2e-3-1e-3 3e-3-1e-3 2e-3-1e-3c9e-3-1e-3 3e-3-1e-3 3e-3-1e-3l2e-3-1e-3c0.0385-0.0232 0.0753-0.0493 0.11-0.078l4.146-3.317c0.262-0.208 0.623-0.273 0.94-0.167l0.557 0.186-4.133 4.823c-0.1901 0.2159-0.424 0.3889-0.686 0.5075-0.2621 0.1186-0.5463 0.1801-0.834 0.1805H4zM15.983 2C15.82 2.002 14.977 2.039 14 2.705c-0.951-0.648-1.774-0.7-1.968-0.704L12.002 2h-4e-3c-0.801 0-1.555 0.313-2.119 0.878C9.313 3.445 9 4.198 9 5s0.313 1.555 0.861 2.104l3.414 3.586c0.0939 0.0975 0.2066 0.1751 0.3312 0.228s0.2586 0.0802 0.394 0.0801 0.2694-0.0275 0.3939-0.0806c0.1246-0.0532 0.2371-0.1309 0.3309-0.2285l3.396-3.568C18.688 6.555 19 5.802 19 5s-0.313-1.555-0.878-2.121c-0.2777-0.2795-0.608-0.501-0.9719-0.6519S16.3959 1.999 15.983 2zM17 5c0 0.267-0.104 0.518-0.311 0.725L14 8.55 11.293 5.707C11.104 5.518 11 5.267 11 5s0.104-0.518 0.294-0.708C11.4748 4.1081 11.7211 4.0031 11.979 4c0.025 1e-3 0.502 0.032 1.067 0.485 0.081 0.065 0.163 0.139 0.247 0.222L14 5.414l0.707-0.707c0.084-0.083 0.166-0.157 0.247-0.222 0.529-0.425 0.976-0.478 1.052-0.484 0.1303 0 0.2594 0.0258 0.3797 0.0759s0.2295 0.1236 0.3213 0.2161C16.896 4.482 17 4.733 17 5z" />
</svg>