<svg viewBox="0 0 24 24" width="32" height="32" xmlns="http://www.w3.org/2000/svg" xmlns:xlink="http://www.w3.org/1999/xlink">
    <path fill="currentColor" d="M21.8798 2.15l-1.2 0.4c-2.0566 0.7146-4.2528 0.9338-6.41 0.64-2.2669-0.3518-4.5871-0.0392-6.68 0.9-1.1096 0.4725-2.0833 1.2149-2.8326 2.1598C4.008 7.1947 3.5069 8.312 3.2998 9.5c-0.2108 1.1425-0.1892 2.3157 0.0633 3.4496 0.2526 1.134 0.731 2.2054 1.4067 3.1504-0.0601 0.21-0.12 0.42-0.17 0.63-0.4062 1.7271-0.6076 3.4959-0.6 5.27h1.9999c0.0941-1.4521 0.2912-2.8958 0.5901-4.32 1.3874 0.7492 2.9433 1.1313 4.52 1.11 1.4704-1e-3 2.9258-0.2968 4.28-0.87 7.61-3.25 6.61-14.06 6.61-14.51zM14.6098 16.08c-2.61 1.11-5.73 0.92-7.48-0.45 0.2957-0.9889 0.7016-1.9416 1.21-2.84 0.3951-0.6466 0.8614-1.247 1.3899-1.79 0.5402-0.5488 1.1485-1.026 1.8101-1.42 1.367-0.8174 2.8832-1.3545 4.46-1.58V7c-1.8143-0.0628-3.6174 0.3074-5.26 1.08-1.6796 0.8196-3.104 2.0815-4.12 3.65-0.3769 0.5991-0.711 1.224-1 1.87-0.4635-1.1856-0.5949-2.4752-0.38-3.73 0.1407-0.8784 0.5029-1.7066 1.0522-2.4064C6.8414 6.7638 7.5598 6.2154 8.3798 5.87c1.1956-0.5588 2.5002-0.8457 3.82-0.84 0.62 0 1.23 0.06 1.87 0.11 2.0043 0.2586 4.0393 0.1399 6-0.35-0.07 2.76-0.57 9.21-5.46 11.29z" />
</svg>