<svg viewBox="0 0 318 100" xmlns="http://www.w3.org/2000/svg">
<path fill-rule="evenodd" clip-rule="evenodd" d="M61.4613 24.0054L61.5167 24.0513L62.0754 24.5164L62.5242 24.8909L64.5104 26.5433L64.5141 72.7039C53.9345 81.4399 43.2883 90.0957 32.5784 98.6696C31.8988 98.602 14.2586 84.0939 5.29768 76.7238L5.04743 76.5179C2.75088 74.6294 1.06286 73.2412 0.438623 72.7371L0.407227 26.5685L32.3106 0.428223C33.3504 0.575509 53.2668 17.1745 61.4613 24.0054ZM47.6847 33.4363L47.6487 33.3785L47.6432 33.3681L47.5933 33.2879C42.3501 24.8042 33.1657 9.94452 32.3799 9.38059L13.868 38.8762L13.9095 59.3521L17.6319 65.4601C19.2617 65.6922 20.9054 65.9577 22.5546 66.2241C25.9002 66.7647 29.2679 67.3089 32.5895 67.585L34.5979 67.2853L37.0201 66.9198C40.4414 66.4026 43.8636 65.8852 47.2913 65.4269L51.0257 59.6271L51.0238 38.8182C50.5787 38.1197 49.334 36.1053 47.6847 33.4363ZM52.4071 41.2951C53.7101 42.9235 54.8293 44.9205 55.9134 46.8551C56.2264 47.4123 56.5357 47.9643 56.846 48.5009C57.0002 48.7678 57.1544 49.0308 57.3096 49.2887L56.6881 50.3034L56.0426 51.3524C55.4793 52.2634 54.9133 53.1723 54.3426 54.0791L52.372 57.276C52.3702 55.7389 52.3572 54.1989 52.3443 52.6577C52.3129 48.8681 52.2824 45.0715 52.4071 41.2951ZM37.6369 6.19357C36.1059 4.84877 34.2276 3.19988 33.1011 2.71935L33.1352 4.23469C33.1629 5.4247 33.1906 6.61494 33.2008 7.80465C39.0812 17.2945 45.0105 26.7542 50.9887 36.1832C50.9878 35.8932 50.9749 35.4394 50.9592 34.883V34.8545V34.8252V34.8099V34.7909C50.8881 32.1341 50.7588 27.3028 51.4366 26.5908C51.4541 26.5714 51.4735 26.5535 51.4948 26.5363L51.5456 26.495L51.5963 26.4537L52.1938 26.715C52.6546 28.8144 52.5438 32.0893 52.445 35.0071L52.4431 35.0497L52.4376 35.228C52.3979 36.4436 52.3609 37.5896 52.372 38.5528C53.1579 39.8679 53.964 41.1752 54.7711 42.4832C56.1728 44.7551 57.5755 47.0292 58.8757 49.3504L52.3813 59.7787L52.397 66.462V71.6083L63.1678 71.6141L63.1447 27.1988C55.2503 20.5571 47.2784 14.0101 39.228 7.55937L38.9796 7.35604L38.7515 7.16403C38.4172 6.87938 38.0395 6.54695 37.6369 6.19357ZM31.5506 2.8035L31.7049 2.93572C32.016 3.85984 31.9292 5.28636 31.8545 6.52161C31.8267 6.97496 31.8009 7.40256 31.7963 7.77008L13.8292 36.4437C13.8338 36.0003 13.8467 35.5322 13.8643 35.0477L13.8809 34.6032L13.9169 33.7347C14.0083 31.5678 14.1062 29.2404 13.8652 27.4183C13.7978 26.9078 13.6454 26.7234 13.2502 26.4246L12.8347 26.5033C12.2067 27.4802 12.3868 33.5265 12.4847 36.8206L12.5133 37.8393C12.5216 38.138 12.5272 38.3867 12.529 38.5729C10.3728 42.0972 8.24618 45.6388 6.14723 49.1973L12.5419 59.6839L12.5152 65.6807L12.4939 71.6161L1.75543 71.6004L1.79606 27.2224C8.19354 21.7039 14.7905 16.3791 21.3819 11.0591C24.7829 8.31461 28.182 5.57135 31.5506 2.8035ZM24.6573 67.8778C22.6368 67.5177 20.6182 67.1578 18.6098 66.9951L20.163 69.4888C24.3036 76.1339 28.4544 82.7976 32.414 89.543C34.4216 86.3049 36.4097 83.055 38.3748 79.7934C39.264 78.3598 40.1459 76.9206 41.0277 75.4811C42.7739 72.6298 44.522 69.7776 46.3273 66.9678C45.2026 67.1271 43.8645 67.3579 42.4406 67.6036C38.9066 68.2135 34.8408 68.9151 32.1832 68.8427C29.6872 68.7745 27.1718 68.326 24.6573 67.8778ZM13.8394 66.2745L16.8811 66.7139C18.92 70.0959 20.9941 73.4572 23.0681 76.8185L23.0764 76.8334L23.1318 76.9238C26.0387 81.6372 28.9457 86.3511 31.7575 91.123C31.7556 91.8662 31.7575 92.6098 31.764 93.3534C31.7723 94.4193 31.788 95.4853 31.812 96.5505L25.7488 91.5878L2.86169 72.9187C5.42973 72.9544 8.00055 72.9467 10.5704 72.939C11.6555 72.9357 12.7405 72.9324 13.8246 72.9324C13.8846 70.7157 13.844 68.4931 13.8394 66.2745ZM50.2703 66.3749L50.1567 66.3858L48.0513 66.71L33.1611 90.9433L33.1029 96.5329C34.0624 95.7508 35.0227 94.9713 35.9859 94.1942C37.1909 93.221 38.3997 92.2515 39.6103 91.2851C47.1454 85.2385 54.6196 79.1177 62.0329 72.9207L51.0395 72.9324C51.046 72.4417 51.0663 71.9298 51.0875 71.4078L51.0903 71.3626C51.1577 69.7416 51.2288 68.0268 50.9047 66.5499C50.6157 66.3329 50.5787 66.3374 50.3562 66.3647L50.2703 66.3749ZM12.5383 56.614L12.5336 57.1119L10.9426 54.5127C10.2666 53.27 9.51127 52.0515 8.75868 50.8386C8.42348 50.2976 8.0892 49.7577 7.7623 49.2172C8.69127 47.4737 9.71165 45.7684 10.7311 44.0656L11.5105 42.762C11.7672 42.3293 12.023 41.8962 12.2751 41.462C12.8079 42.2728 12.6491 50.6419 12.5678 54.919C12.5549 55.6055 12.5438 56.1865 12.5383 56.614ZM49.5796 64.9051L49.8557 64.4122C50.3414 63.5415 50.8299 62.6667 51.4597 61.8914C51.516 62.6923 51.4569 63.7825 51.3129 64.4383C50.5233 64.7281 50.2029 64.8308 49.5796 64.9051ZM13.9188 62.1651C14.6677 63.0871 15.2153 64.1496 15.7979 65.1788C15.5837 65.1533 15.4858 65.1453 15.3898 65.1269C15.207 65.0918 15.0315 65.0185 14.0647 64.7121C13.9188 63.7825 13.8615 62.9661 13.9188 62.1651Z" fill="black"/>
<path d="M47.6487 33.3785L47.6847 33.4363C49.334 36.1053 50.5787 38.1197 51.0238 38.8182L51.0257 59.6271L47.2913 65.4269C43.8636 65.8852 40.4414 66.4026 37.0201 66.9198L34.5979 67.2853L32.5895 67.585C29.2679 67.3089 25.9002 66.7647 22.5546 66.2241C20.9054 65.9577 19.2617 65.6922 17.6319 65.4601L13.9095 59.3521L13.868 38.8762L32.3799 9.38059M47.6487 33.3785L47.6432 33.3681L47.5933 33.2879C42.3501 24.8042 33.1657 9.94452 32.3799 9.38059M47.6487 33.3785C46.3393 31.2589 44.7778 28.7322 43.1609 26.1264C38.3166 18.3214 32.9709 9.80491 32.3799 9.38059M50.9887 36.1832C45.0105 26.7542 39.0812 17.2945 33.2008 7.80465C33.1906 6.61494 33.1629 5.4247 33.1352 4.23469L33.1011 2.71935C34.2277 3.19988 36.1059 4.84877 37.6369 6.19357C38.0395 6.54695 38.4172 6.87938 38.7515 7.16403L38.9796 7.35604L39.228 7.55937C47.2784 14.0101 55.2503 20.5571 63.1447 27.1988L63.1678 71.6141L52.397 71.6083V66.462L52.3813 59.7787L58.8757 49.3504C57.5755 47.0292 56.1728 44.7551 54.7711 42.4832C53.964 41.1752 53.1579 39.8679 52.372 38.5528M50.9887 36.1832C50.9878 35.8932 50.9749 35.4394 50.9592 34.883M50.9887 36.1832C50.9887 36.1786 50.9887 36.174 50.9887 36.1694C50.9887 35.8789 50.9749 35.4307 50.9592 34.883M50.9592 34.883V34.8545V34.8252V34.8099V34.7909C50.8881 32.1341 50.7588 27.3028 51.4366 26.5908C51.4541 26.5714 51.4735 26.5535 51.4948 26.5363L51.5456 26.495L51.5963 26.4537L52.1938 26.715C52.6546 28.8144 52.5438 32.0893 52.445 35.0071M52.445 35.0071L52.4431 35.0497L52.4376 35.228C52.3979 36.4436 52.3609 37.5896 52.372 38.5528M52.445 35.0071C52.4385 35.1974 52.433 35.3891 52.4265 35.576C52.3914 36.6619 52.3619 37.682 52.372 38.5528M15.3898 65.1269C15.4858 65.1453 15.5837 65.1533 15.7979 65.1788C15.2153 64.1496 14.6677 63.0871 13.9188 62.1651C13.8615 62.9661 13.9188 63.7825 14.0647 64.7121M15.3898 65.1269C15.207 65.0918 15.0315 65.0185 14.0647 64.7121M15.3898 65.1269C15.2088 65.0922 15.0389 65.0213 14.1007 64.7234C14.0887 64.7197 14.0767 64.7159 14.0647 64.7121M61.4613 24.0054L61.5167 24.0513L62.0754 24.5164L62.5241 24.8909L64.5104 26.5433L64.5141 72.7039C53.9345 81.4399 43.2883 90.0957 32.5784 98.6696C31.8988 98.602 14.2586 84.0939 5.29768 76.7238L5.04743 76.5179C2.75088 74.6294 1.06286 73.2412 0.438623 72.7371L0.407227 26.5685L32.3106 0.428223C33.3504 0.575509 53.2668 17.1745 61.4613 24.0054ZM52.4071 41.2951C53.7101 42.9235 54.8293 44.9205 55.9134 46.8551C56.2264 47.4123 56.5357 47.9643 56.846 48.5009C57.0002 48.7678 57.1544 49.0308 57.3096 49.2887L56.6881 50.3034L56.0426 51.3524C55.4793 52.2634 54.9133 53.1723 54.3426 54.0791L52.372 57.276C52.3702 55.7389 52.3572 54.1989 52.3443 52.6577C52.3129 48.8681 52.2824 45.0715 52.4071 41.2951ZM31.5506 2.8035L31.7049 2.93572C32.016 3.85984 31.9292 5.28636 31.8544 6.52161C31.8267 6.97496 31.8009 7.40256 31.7963 7.77008L13.8292 36.4437C13.8338 36.0003 13.8467 35.5321 13.8643 35.0477L13.8809 34.6032L13.9169 33.7347C14.0083 31.5678 14.1062 29.2404 13.8652 27.4183C13.7978 26.9078 13.6454 26.7234 13.2502 26.4246L12.8347 26.5033C12.2067 27.4802 12.3868 33.5265 12.4847 36.8206L12.5133 37.8393C12.5216 38.138 12.5272 38.3867 12.529 38.5729C10.3728 42.0972 8.24618 45.6388 6.14723 49.1973L12.5419 59.6839L12.5152 65.6807L12.4939 71.6161L1.75543 71.6004L1.79606 27.2224C8.19354 21.7039 14.7905 16.3791 21.3819 11.0591C24.7829 8.31461 28.182 5.57135 31.5506 2.8035ZM24.6573 67.8778C22.6368 67.5177 20.6182 67.1578 18.6098 66.9951L20.163 69.4888C24.3036 76.1339 28.4544 82.7976 32.414 89.543C34.4216 86.3049 36.4097 83.055 38.3748 79.7934C39.264 78.3598 40.1459 76.9206 41.0277 75.4811C42.7739 72.6297 44.522 69.7776 46.3273 66.9678C45.2026 67.1271 43.8645 67.3579 42.4406 67.6036C38.9066 68.2135 34.8408 68.9151 32.1832 68.8427C29.6872 68.7745 27.1718 68.326 24.6573 67.8778ZM13.8394 66.2745L16.8811 66.7139C18.92 70.0959 20.9941 73.4572 23.0681 76.8185L23.0764 76.8334L23.1318 76.9238C26.0387 81.6372 28.9457 86.3511 31.7575 91.123C31.7556 91.8662 31.7575 92.6098 31.764 93.3534C31.7723 94.4193 31.788 95.4853 31.812 96.5505L25.7488 91.5878L2.86169 72.9187C5.42973 72.9544 8.00055 72.9467 10.5704 72.939C11.6555 72.9357 12.7405 72.9324 13.8246 72.9324C13.8846 70.7157 13.844 68.4931 13.8394 66.2745ZM50.2703 66.3749L50.1567 66.3858L48.0513 66.71L33.1611 90.9433L33.1029 96.5329C34.0624 95.7508 35.0227 94.9713 35.9859 94.1942C37.1909 93.221 38.3997 92.2515 39.6103 91.2851C47.1454 85.2385 54.6196 79.1177 62.0329 72.9207L51.0395 72.9324C51.046 72.4417 51.0663 71.9298 51.0875 71.4078L51.0903 71.3626C51.1577 69.7416 51.2288 68.0268 50.9047 66.5499C50.6157 66.3329 50.5787 66.3374 50.3562 66.3647L50.2703 66.3749ZM12.5383 56.614L12.5336 57.1119L10.9426 54.5127C10.2666 53.27 9.51127 52.0515 8.75868 50.8386C8.42348 50.2976 8.0892 49.7577 7.7623 49.2172C8.69127 47.4737 9.71165 45.7684 10.7311 44.0656L11.5105 42.762C11.7672 42.3293 12.023 41.8962 12.2751 41.462C12.8079 42.2728 12.6491 50.6419 12.5678 54.919C12.5549 55.6055 12.5438 56.1865 12.5383 56.614ZM49.5796 64.9051L49.8557 64.4122C50.3414 63.5415 50.8299 62.6667 51.4597 61.8914C51.516 62.6923 51.4569 63.7825 51.3129 64.4383C50.5233 64.7281 50.2029 64.8309 49.5796 64.9051Z" stroke="black" stroke-width="0.814285"/>
<path fill-rule="evenodd" clip-rule="evenodd" d="M47.6846 33.4362C47.0308 32.379 46.3142 31.2191 45.5588 29.9976C46.3003 31.1968 47.0049 32.3368 47.6485 33.3784L47.6846 33.4362Z" fill="black" stroke="black" stroke-width="0.814285"/>
<path fill-rule="evenodd" clip-rule="evenodd" d="M50.9876 36.1827C50.9866 35.8827 50.9737 35.4074 50.958 34.8247V34.8541C50.9737 35.4234 50.9866 35.8878 50.9876 36.1827Z" fill="black"/>
<path d="M50.958 34.8541V34.8247C50.9737 35.4074 50.9866 35.8827 50.9876 36.1827C50.9866 35.8878 50.9737 35.4234 50.958 34.8541ZM50.958 34.8541V34.8825C50.9737 35.4302 50.9876 35.8782 50.9876 36.1688" stroke="black" stroke-width="0.814285"/>
<path fill-rule="evenodd" clip-rule="evenodd" d="M13.8757 34.728C13.8526 35.3263 13.8342 35.9033 13.8286 36.4435C13.8333 36.0002 13.8462 35.532 13.8637 35.0475C13.8674 34.9427 13.872 34.8342 13.8757 34.728ZM12.5285 38.5728C12.5257 38.2026 12.5072 37.5858 12.4841 36.8204L12.5128 37.8392C12.5211 38.1378 12.5266 38.3865 12.5285 38.5728Z" fill="black" stroke="black" stroke-width="0.814285"/>
<path fill-rule="evenodd" clip-rule="evenodd" d="M51.0457 72.6195C51.0558 72.211 51.0734 71.7899 51.0909 71.3623L51.0881 71.4075C51.0715 71.821 51.0549 72.2241 51.0457 72.6195Z" fill="black"/>
<path d="M51.0881 71.4075L51.0909 71.3623C51.0734 71.7899 51.0558 72.211 51.0457 72.6195C51.0549 72.2241 51.0715 71.821 51.0881 71.4075ZM51.0881 71.4075C51.0771 71.674 51.066 71.9362 51.0577 72.1959C51.053 72.3277 51.0493 72.46 51.0466 72.5895" stroke="black" stroke-width="0.814285"/>
<path fill-rule="evenodd" clip-rule="evenodd" d="M12.2743 41.4619C11.9704 41.9852 11.662 42.507 11.3508 43.0283L11.5097 42.7619C11.7664 42.3292 12.0222 41.896 12.2743 41.4619ZM12.5328 57.1118C12.5328 56.5886 12.5577 55.4115 12.5854 53.9245C12.579 54.2746 12.5725 54.6076 12.567 54.9189C12.5476 55.9296 12.5328 56.7118 12.5328 57.1118Z" fill="black" stroke="black" stroke-width="0.814285"/>
<path d="M213.017 91.9672V88.912H216.118C217.182 88.912 218.094 88.7752 218.854 88.5016C219.614 88.2584 220.252 87.8176 220.769 87.1792C221.286 86.5408 221.726 85.6592 222.091 84.5344L230.208 58.4512H233.537L225.055 85.492C224.569 87.0424 223.9 88.2888 223.049 89.2312C222.198 90.204 221.179 90.9032 219.994 91.3288C218.808 91.7544 217.455 91.9672 215.935 91.9672H213.017ZM220.86 81.9808V79.108H225.192V81.9808H220.86ZM220.45 81.9808L211.694 58.4512H215.206L223.642 81.9808H220.45Z" fill="black"/>
<path d="M196.423 82.5732V58.4508H199.159V68.5284H198.885C198.885 65.002 199.66 62.4028 201.211 60.7308C202.761 59.0284 205.193 58.1772 208.507 58.1772H209.282V61.278H207.868C205.254 61.278 203.263 61.962 201.895 63.33C200.527 64.6676 199.843 66.6436 199.843 69.258V82.5732H196.423Z" fill="black"/>
<path d="M184.594 82.5736V49.2856H188.014V82.5736H184.594ZM181.083 52.0672V49.2856H188.014V52.0672H181.083Z" fill="black"/>
<path d="M167.113 83.3488C165.045 83.3488 163.252 82.9992 161.732 82.3C160.212 81.5704 158.965 80.6128 157.993 79.4272C157.02 78.2112 156.29 76.8584 155.804 75.3688C155.348 73.8792 155.12 72.344 155.12 70.7632V70.1248C155.12 68.5744 155.348 67.0544 155.804 65.5648C156.29 64.0752 157.02 62.7376 157.993 61.552C158.965 60.3664 160.181 59.424 161.641 58.7248C163.13 57.9952 164.863 57.6304 166.839 57.6304C169.362 57.6304 171.46 58.1928 173.132 59.3176C174.834 60.4424 176.111 61.8864 176.962 63.6496C177.813 65.3824 178.239 67.252 178.239 69.2584V71.0368H156.67V68.392H175.868L175.001 69.7144C175.001 67.9208 174.682 66.3552 174.044 65.0176C173.436 63.6496 172.524 62.5856 171.308 61.8256C170.122 61.0352 168.633 60.64 166.839 60.64C164.954 60.64 163.389 61.0808 162.142 61.9624C160.896 62.844 159.953 64.0144 159.315 65.4736C158.707 66.9328 158.403 68.5896 158.403 70.444C158.403 72.268 158.707 73.94 159.315 75.46C159.953 76.9496 160.911 78.1352 162.188 79.0168C163.495 79.8984 165.137 80.3392 167.113 80.3392C169.21 80.3392 170.913 79.868 172.22 78.9256C173.527 77.9528 174.333 76.8128 174.637 75.5056H177.829C177.525 77.1168 176.886 78.5152 175.913 79.7008C174.941 80.856 173.709 81.7528 172.22 82.3912C170.73 83.0296 169.028 83.3488 167.113 83.3488Z" fill="black"/>
<path d="M104.977 85.2999C102.909 85.2999 101.116 84.9503 99.5959 84.2511C98.0759 83.5215 96.8295 82.5639 95.8567 81.3783C94.8839 80.1623 94.1543 78.8095 93.6679 77.3199C93.2119 75.8303 92.9839 74.2951 92.9839 72.7143V72.0759C92.9839 70.5255 93.2119 69.0055 93.6679 67.5159C94.1543 66.0263 94.8839 64.6887 95.8567 63.5031C96.8295 62.3175 98.0455 61.3751 99.5047 60.6759C100.994 59.9463 102.727 59.5815 104.703 59.5815C107.226 59.5815 109.324 60.1439 110.996 61.2687C112.698 62.3935 113.975 63.8375 114.826 65.6007C115.677 67.3335 116.103 69.2031 116.103 71.2095V72.9879H94.5343V70.3431H113.732L112.865 71.6655C112.865 69.8719 112.546 68.3063 111.908 66.9687C111.3 65.6007 110.388 64.5367 109.172 63.7767C107.986 62.9863 106.497 62.5911 104.703 62.5911C102.818 62.5911 101.253 63.0319 100.006 63.9135C98.7599 64.7951 97.8175 65.9655 97.1791 67.4247C96.5711 68.8839 96.2671 70.5407 96.2671 72.3951C96.2671 74.2191 96.5711 75.8911 97.1791 77.4111C97.8175 78.9007 98.7751 80.0863 100.052 80.9679C101.359 81.8495 103.001 82.2903 104.977 82.2903C107.074 82.2903 108.777 81.8191 110.084 80.8767C111.391 79.9039 112.197 78.7639 112.501 77.4567H115.693C115.389 79.0679 114.75 80.4663 113.777 81.6519C112.805 82.8071 111.573 83.7039 110.084 84.3423C108.594 84.9807 106.892 85.2999 104.977 85.2999Z" fill="black"/>
<path d="M76.811 93.7817V90.7265H79.547C80.7326 90.7265 81.6294 90.3769 82.2374 89.6777C82.8758 89.0089 83.195 88.0361 83.195 86.7593V60.4025H86.4782V86.1209C86.4782 88.0057 86.2198 89.5105 85.703 90.6353C85.2166 91.7601 84.4262 92.5657 83.3318 93.0521C82.2374 93.5385 80.7782 93.7817 78.9542 93.7817H76.811ZM79.2734 63.1385V60.4025H86.4782V63.1385H79.2734ZM83.8334 55.5233C83.0126 55.5233 82.3894 55.3105 81.9638 54.8849C81.5686 54.4289 81.371 53.8665 81.371 53.1977C81.371 52.5289 81.5686 51.9817 81.9638 51.5561C82.3894 51.1001 83.0126 50.8721 83.8334 50.8721C84.6542 50.8721 85.2622 51.1001 85.6574 51.5561C86.0526 51.9817 86.2502 52.5289 86.2502 53.1977C86.2502 53.8665 86.0526 54.4289 85.6574 54.8849C85.2622 55.3105 84.6542 55.5233 83.8334 55.5233Z" fill="black"/>
<path d="M304.279 46.4484C302.211 46.4484 300.418 46.0988 298.898 45.3996C297.378 44.67 296.131 43.7124 295.159 42.5268C294.186 41.3108 293.456 39.958 292.97 38.4684C292.514 36.9788 292.286 35.4436 292.286 33.8628V33.2244C292.286 31.674 292.514 30.154 292.97 28.6644C293.456 27.1748 294.186 25.8372 295.159 24.6516C296.131 23.466 297.347 22.5236 298.807 21.8244C300.296 21.0948 302.029 20.73 304.005 20.73C306.528 20.73 308.626 21.2924 310.298 22.4172C312 23.542 313.277 24.986 314.128 26.7492C314.979 28.482 315.405 30.3516 315.405 32.358V34.1364H293.836V31.4916H313.034L312.167 32.814C312.167 31.0204 311.848 29.4548 311.21 28.1172C310.602 26.7492 309.69 25.6852 308.474 24.9252C307.288 24.1348 305.799 23.7396 304.005 23.7396C302.12 23.7396 300.555 24.1804 299.308 25.062C298.062 25.9436 297.119 27.114 296.481 28.5732C295.873 30.0324 295.569 31.6892 295.569 33.5436C295.569 35.3676 295.873 37.0396 296.481 38.5596C297.119 40.0492 298.077 41.2348 299.354 42.1164C300.661 42.998 302.303 43.4388 304.279 43.4388C306.376 43.4388 308.079 42.9676 309.386 42.0252C310.693 41.0524 311.499 39.9124 311.803 38.6052H314.995C314.691 40.2164 314.052 41.6148 313.079 42.8004C312.107 43.9556 310.875 44.8524 309.386 45.4908C307.896 46.1292 306.194 46.4484 304.279 46.4484Z" fill="black"/>
<path d="M273.38 46.448C271.617 46.448 270.006 46.1288 268.547 45.4904C267.118 44.8216 265.871 43.9096 264.807 42.7544C263.774 41.5688 262.968 40.2312 262.391 38.7416C261.843 37.2216 261.57 35.6104 261.57 33.908V33.2696C261.57 31.628 261.843 30.0624 262.391 28.5728C262.938 27.0528 263.713 25.7152 264.716 24.56C265.75 23.3744 266.981 22.4472 268.41 21.7784C269.869 21.0792 271.495 20.7296 273.289 20.7296C275.326 20.7296 277.119 21.1704 278.67 22.052C280.22 22.9336 281.467 24.2104 282.409 25.8824C283.351 27.524 283.853 29.5456 283.914 31.9472L282.409 29.12V12.3848H285.829V45.6728H283.093V34.9568H284.187C284.127 37.48 283.595 39.608 282.591 41.3408C281.619 43.0432 280.327 44.32 278.715 45.1712C277.135 46.0224 275.356 46.448 273.38 46.448ZM273.836 43.4384C275.478 43.4384 276.952 43.0736 278.259 42.344C279.597 41.6144 280.646 40.5808 281.406 39.2432C282.166 37.8752 282.546 36.3096 282.546 34.5464V32.3576C282.546 30.6552 282.166 29.1656 281.406 27.8888C280.646 26.5816 279.597 25.5632 278.259 24.8336C276.952 24.104 275.463 23.7392 273.791 23.7392C271.997 23.7392 270.431 24.18 269.094 25.0616C267.787 25.9128 266.768 27.0832 266.039 28.5728C265.339 30.0624 264.99 31.7344 264.99 33.5888C264.99 35.504 265.355 37.2064 266.084 38.696C266.814 40.1856 267.847 41.356 269.185 42.2072C270.523 43.028 272.073 43.4384 273.836 43.4384Z" fill="black"/>
<path d="M252.663 45.6728V38.4224H252.116V29.8497C252.116 28.0561 251.644 26.6881 250.702 25.7457C249.76 24.7729 248.3 24.2865 246.324 24.2865C245.412 24.2865 244.485 24.3017 243.543 24.3321C242.631 24.3625 241.749 24.4081 240.898 24.4689C240.077 24.4993 239.348 24.5449 238.709 24.6057V21.5961C239.378 21.5353 240.062 21.4745 240.761 21.4137C241.46 21.3529 242.175 21.3225 242.904 21.3225C243.664 21.2921 244.394 21.2769 245.093 21.2769C247.556 21.2769 249.532 21.5809 251.021 22.1889C252.541 22.7969 253.651 23.7545 254.35 25.0617C255.049 26.3385 255.399 28.0409 255.399 30.1689V45.6728H252.663ZM244.5 46.3112C242.798 46.3112 241.293 46.0072 239.986 45.3992C238.679 44.7912 237.66 43.9096 236.931 42.7544C236.232 41.5992 235.882 40.2008 235.882 38.5592C235.882 36.948 236.247 35.58 236.976 34.4553C237.736 33.3305 238.816 32.4793 240.214 31.9017C241.643 31.2937 243.36 30.9897 245.367 30.9897H252.435V33.5889H245.139C243.224 33.5889 241.749 34.0601 240.716 35.0024C239.712 35.9144 239.211 37.1152 239.211 38.6048C239.211 40.1248 239.743 41.3408 240.807 42.2528C241.871 43.1344 243.315 43.5752 245.139 43.5752C246.264 43.5752 247.343 43.3776 248.376 42.9824C249.41 42.5568 250.276 41.8576 250.976 40.8848C251.675 39.8816 252.055 38.5136 252.116 36.7808L253.119 38.1945C252.997 39.988 252.572 41.4928 251.842 42.7088C251.112 43.8944 250.124 44.7912 248.878 45.3992C247.632 46.0072 246.172 46.3112 244.5 46.3112Z" fill="black"/>
<path d="M194.572 45.6733V21.5053H197.308V31.6741H196.761C196.761 29.4549 197.065 27.5397 197.673 25.9285C198.311 24.3173 199.254 23.0709 200.5 22.1893C201.747 21.2773 203.327 20.8213 205.243 20.8213H205.379C207.295 20.8213 208.875 21.2621 210.122 22.1437C211.368 23.0253 212.295 24.2717 212.903 25.8829C213.511 27.4941 213.815 29.4245 213.815 31.6741H212.721C212.721 29.4549 213.025 27.5397 213.633 25.9285C214.271 24.3173 215.214 23.0709 216.46 22.1893C217.737 21.2773 219.333 20.8213 221.248 20.8213H221.385C223.3 20.8213 224.881 21.2621 226.127 22.1437C227.404 23.0253 228.347 24.2717 228.955 25.8829C229.593 27.4941 229.912 29.4245 229.912 31.6741V45.6733H226.492V30.8989C226.492 28.7709 225.975 27.0837 224.942 25.8373C223.908 24.5909 222.419 23.9677 220.473 23.9677C218.467 23.9677 216.871 24.6213 215.685 25.9285C214.53 27.2053 213.952 28.9381 213.952 31.1269V45.6733H210.532V30.8989C210.532 28.7709 210.015 27.0837 208.982 25.8373C207.948 24.5909 206.459 23.9677 204.513 23.9677C202.507 23.9677 200.911 24.6213 199.725 25.9285C198.57 27.2053 197.992 28.9381 197.992 31.1269V45.6733H194.572Z" fill="black"/>
<path d="M173.752 46.448C171.988 46.448 170.377 46.1288 168.918 45.4904C167.489 44.8216 166.243 43.9096 165.179 42.7544C164.145 41.5688 163.34 40.2312 162.762 38.7416C162.215 37.2216 161.941 35.6104 161.941 33.908V33.2696C161.941 31.628 162.215 30.0624 162.762 28.5728C163.309 27.0528 164.084 25.7152 165.088 24.56C166.121 23.3744 167.352 22.4472 168.781 21.7784C170.24 21.0792 171.867 20.7296 173.66 20.7296C175.697 20.7296 177.491 21.1704 179.041 22.052C180.592 22.9336 181.838 24.2104 182.78 25.8824C183.723 27.524 184.224 29.5456 184.285 31.9472L182.78 29.12V12.3848H186.2V45.6728H183.464V34.9568H184.559C184.498 37.48 183.966 39.608 182.963 41.3408C181.99 43.0432 180.698 44.32 179.087 45.1712C177.506 46.0224 175.728 46.448 173.752 46.448ZM174.208 43.4384C175.849 43.4384 177.324 43.0736 178.631 42.344C179.968 41.6144 181.017 40.5808 181.777 39.2432C182.537 37.8752 182.917 36.3096 182.917 34.5464V32.3576C182.917 30.6552 182.537 29.1656 181.777 27.8888C181.017 26.5816 179.968 25.5632 178.631 24.8336C177.324 24.104 175.834 23.7392 174.162 23.7392C172.368 23.7392 170.803 24.18 169.465 25.0616C168.158 25.9128 167.14 27.0832 166.41 28.5728C165.711 30.0624 165.361 31.7344 165.361 33.5888C165.361 35.504 165.726 37.2064 166.456 38.696C167.185 40.1856 168.219 41.356 169.556 42.2072C170.894 43.028 172.444 43.4384 174.208 43.4384Z" fill="black"/>
<path d="M135.367 45.6733V21.5509H138.103V31.6741H137.556C137.556 29.4245 137.891 27.4941 138.559 25.8829C139.228 24.2717 140.231 23.0253 141.569 22.1437C142.907 21.2621 144.594 20.8213 146.631 20.8213H146.767C149.807 20.8213 152.072 21.7789 153.562 23.6941C155.051 25.5789 155.796 28.2389 155.796 31.6741V45.6733H152.422V30.9445C152.422 28.8469 151.844 27.1597 150.689 25.8829C149.534 24.6061 147.923 23.9677 145.855 23.9677C143.727 23.9677 142.01 24.6365 140.703 25.9741C139.426 27.2813 138.787 29.0141 138.787 31.1725V45.6733H135.367Z" fill="black"/>
<path d="M124.543 45.6728V38.4224H123.996V29.8497C123.996 28.0561 123.525 26.6881 122.583 25.7457C121.64 24.7729 120.181 24.2865 118.205 24.2865C117.293 24.2865 116.366 24.3017 115.423 24.3321C114.511 24.3625 113.63 24.4081 112.779 24.4689C111.958 24.4993 111.228 24.5449 110.59 24.6057V21.5961C111.259 21.5353 111.943 21.4745 112.642 21.4137C113.341 21.3529 114.055 21.3225 114.785 21.3225C115.545 21.2921 116.275 21.2769 116.974 21.2769C119.436 21.2769 121.412 21.5809 122.902 22.1889C124.422 22.7969 125.531 23.7545 126.231 25.0617C126.93 26.3385 127.279 28.0409 127.279 30.1689V45.6728H124.543ZM116.381 46.3112C114.679 46.3112 113.174 46.0072 111.867 45.3992C110.559 44.7912 109.541 43.9096 108.811 42.7544C108.112 41.5992 107.763 40.2008 107.763 38.5592C107.763 36.948 108.127 35.58 108.857 34.4553C109.617 33.3305 110.696 32.4793 112.095 31.9017C113.523 31.2937 115.241 30.9897 117.247 30.9897H124.315V33.5889H117.019C115.104 33.5889 113.63 34.0601 112.596 35.0024C111.593 35.9144 111.091 37.1152 111.091 38.6048C111.091 40.1248 111.623 41.3408 112.687 42.2528C113.751 43.1344 115.195 43.5752 117.019 43.5752C118.144 43.5752 119.223 43.3776 120.257 42.9824C121.291 42.5568 122.157 41.8576 122.856 40.8848C123.555 39.8816 123.935 38.5136 123.996 36.7808L124.999 38.1945C124.878 39.988 124.452 41.4928 123.723 42.7088C122.993 43.8944 122.005 44.7912 120.759 45.3992C119.512 46.0072 118.053 46.3112 116.381 46.3112Z" fill="black"/>
<path d="M81.3723 45.6728V12.3848H84.7923V31.2176L83.7891 31.9928C83.7891 29.7432 84.1083 27.7824 84.7467 26.1104C85.4155 24.4384 86.4035 23.1464 87.7107 22.2344C89.0483 21.292 90.7203 20.8208 92.7267 20.8208H92.9091C95.8275 20.8208 98.0315 21.7784 99.5211 23.6936C101.041 25.6088 101.801 28.2688 101.801 31.6736V45.6728H98.4267V30.944C98.4267 28.7856 97.8339 27.0832 96.6483 25.8368C95.4627 24.5904 93.8667 23.9672 91.8603 23.9672C89.7019 23.9672 87.9843 24.6664 86.7075 26.0648C85.4307 27.4328 84.7923 29.2416 84.7923 31.4912V45.6728H81.3723Z" fill="black"/>
<path d="M128.85 81.8569L133.635 60.1773H138.081L143.628 81.8569H140.876L135.329 60.3044H136.345L131.518 81.8569H128.85ZM127.03 81.8569V79.274H130.883V81.8569H127.03ZM126.268 81.8569L119.789 59.4575H122.838L129.232 81.8569H126.268ZM141.596 81.8569V79.274H145.364V81.8569H141.596ZM143.247 81.8569L148.836 59.4575H151.758L146.042 81.8569H143.247Z" fill="black"/>
</svg>
