<svg width="79" height="25" viewBox="0 0 79 25" xmlns="http://www.w3.org/2000/svg">
<path fill-rule="evenodd" clip-rule="evenodd" d="M15.0953 5.89611L15.109 5.90738L15.2462 6.02163L15.3564 6.1136L15.8443 6.51946L15.8452 17.8572C13.2467 20.0028 10.6318 22.1288 8.00131 24.2347C7.83438 24.2181 3.5017 20.6547 1.30077 18.8445L1.23931 18.7939C0.675243 18.3301 0.260642 17.9891 0.107321 17.8653L0.0996094 6.52565L7.93553 0.105225C8.19092 0.1414 13.0827 4.21834 15.0953 5.89611ZM11.7116 8.21247L11.7028 8.19828L11.7014 8.19573L11.6892 8.17603C10.4014 6.09231 8.14556 2.44256 7.95254 2.30405L3.40576 9.5486L3.41597 14.5778L4.33022 16.078C4.73054 16.135 5.13425 16.2002 5.53933 16.2656C6.36105 16.3984 7.18821 16.5321 8.00403 16.5999L8.49733 16.5263L9.09225 16.4365C9.93256 16.3095 10.7731 16.1824 11.615 16.0698L12.5322 14.6453L12.5318 9.53435C12.4224 9.36278 12.1167 8.86802 11.7116 8.21247ZM12.8715 10.1427C13.1915 10.5427 13.4664 11.0332 13.7327 11.5083C13.8096 11.6452 13.8856 11.7808 13.9618 11.9126C13.9996 11.9781 14.0375 12.0427 14.0756 12.106L13.923 12.3553L13.7645 12.6129C13.6261 12.8367 13.4871 13.0599 13.3469 13.2826L12.8629 14.0678C12.8624 13.6903 12.8593 13.3121 12.8561 12.9335C12.8484 12.0027 12.8409 11.0703 12.8715 10.1427ZM9.24375 1.52127C8.86771 1.19097 8.40638 0.785983 8.12968 0.667959L8.13807 1.04015C8.14488 1.33243 8.15168 1.62477 8.15417 1.91698C9.59848 4.24782 11.0548 6.57127 12.5231 8.88714C12.5229 8.81591 12.5197 8.70446 12.5159 8.5678V8.56081V8.5536V8.54985V8.54518C12.4984 7.89264 12.4667 6.70601 12.6331 6.53112C12.6375 6.52635 12.6422 6.52197 12.6474 6.51774L12.6599 6.50759L12.6724 6.49744L12.8191 6.56163C12.9323 7.07726 12.9051 7.88164 12.8808 8.59829L12.8804 8.60875L12.879 8.65254C12.8692 8.9511 12.8602 9.23258 12.8629 9.46916C13.0559 9.79217 13.2539 10.1133 13.4521 10.4345C13.7964 10.9925 14.1409 11.5511 14.4603 12.1212L12.8652 14.6825L12.869 16.324V17.5881L15.5145 17.5895L15.5088 6.68045C13.5699 5.04916 11.6118 3.44112 9.63454 1.85673L9.57353 1.8068L9.51751 1.75963C9.4354 1.68972 9.34264 1.60807 9.24375 1.52127ZM7.74887 0.688627L7.78675 0.721102C7.86318 0.948079 7.84186 1.29845 7.82349 1.60185C7.81669 1.71319 7.81034 1.81822 7.8092 1.90849L3.39624 8.95113C3.39737 8.84224 3.40055 8.72725 3.40486 8.60826L3.40894 8.49908L3.41778 8.28577C3.44024 7.75355 3.46428 7.1819 3.40508 6.73437C3.38853 6.60898 3.3511 6.56368 3.25403 6.4903L3.15197 6.50963C2.99774 6.74957 3.04197 8.23462 3.06601 9.0437L3.07304 9.29392C3.07508 9.36728 3.07644 9.42836 3.07689 9.4741C2.5473 10.3397 2.02497 11.2096 1.50944 12.0836L3.08007 14.6593L3.07349 16.1322L3.06827 17.59L0.430746 17.5861L0.440726 6.68626C2.01204 5.33084 3.63234 4.02297 5.25128 2.71633C6.08661 2.04223 6.92148 1.36845 7.74887 0.688627ZM6.05577 16.6718C5.55951 16.5834 5.06371 16.495 4.57041 16.455L4.9519 17.0675C5.9689 18.6996 6.98839 20.3363 7.96094 21.9931C8.45401 21.1977 8.94233 20.3995 9.42497 19.5984C9.64338 19.2463 9.85998 18.8928 10.0766 18.5393C10.5055 17.8389 10.9348 17.1384 11.3782 16.4483C11.102 16.4874 10.7733 16.5441 10.4236 16.6044C9.55561 16.7542 8.55698 16.9266 7.90423 16.9088C7.29118 16.892 6.67336 16.7819 6.05577 16.6718ZM3.39873 16.278L4.14583 16.3859C4.64662 17.2166 5.15602 18.0422 5.66543 18.8678L5.66747 18.8714L5.68108 18.8936C6.39507 20.0513 7.10905 21.2091 7.79968 22.3811C7.79922 22.5637 7.79968 22.7463 7.80126 22.929C7.80331 23.1908 7.80716 23.4526 7.81306 23.7142L6.32385 22.4953L0.70246 17.9099C1.33321 17.9187 1.96464 17.9168 2.59584 17.9149C2.86233 17.9141 3.12883 17.9133 3.3951 17.9133C3.40984 17.3688 3.39987 16.8229 3.39873 16.278ZM12.3467 16.3027L12.3188 16.3053L11.8017 16.385L8.14442 22.337L8.13013 23.7099C8.36579 23.5178 8.60166 23.3263 8.83822 23.1355C9.1342 22.8964 9.43109 22.6583 9.72844 22.421C11.5792 20.9358 13.4149 19.4325 15.2357 17.9104L12.5356 17.9133C12.5372 17.7927 12.5422 17.667 12.5474 17.5388L12.5481 17.5277C12.5646 17.1296 12.5821 16.7084 12.5025 16.3456C12.4315 16.2923 12.4224 16.2935 12.3678 16.3002L12.3467 16.3027ZM3.07916 13.9052L3.07803 14.0275L2.68724 13.3891C2.52122 13.0839 2.33569 12.7846 2.15084 12.4867C2.06851 12.3538 1.98641 12.2212 1.90612 12.0885C2.13429 11.6603 2.38491 11.2414 2.6353 10.8232L2.82673 10.503C2.88978 10.3967 2.9526 10.2903 3.01452 10.1837C3.14539 10.3828 3.10638 12.4384 3.08642 13.4889C3.08324 13.6575 3.08052 13.8002 3.07916 13.9052ZM12.177 15.9417L12.2449 15.8206C12.3642 15.6067 12.4841 15.3919 12.6388 15.2014C12.6526 15.3982 12.6381 15.6659 12.6028 15.827C12.4088 15.8982 12.3301 15.9234 12.177 15.9417ZM3.41824 15.2687C3.60218 15.4951 3.73667 15.7561 3.87979 16.0089C3.82717 16.0026 3.80313 16.0007 3.77954 15.9961C3.73463 15.9875 3.69154 15.9695 3.45407 15.8942C3.41824 15.6659 3.40417 15.4654 3.41824 15.2687Z" fill="black"/>
<path d="M11.7028 8.19828L11.7116 8.21247C12.1167 8.86802 12.4224 9.36278 12.5318 9.53435L12.5322 14.6453L11.615 16.0698C10.7731 16.1824 9.93256 16.3095 9.09225 16.4365L8.49733 16.5263L8.00403 16.5999C7.18821 16.5321 6.36105 16.3984 5.53933 16.2656C5.13425 16.2002 4.73054 16.135 4.33022 16.078L3.41597 14.5778L3.40576 9.5486L7.95254 2.30405M11.7028 8.19828L11.7014 8.19573L11.6892 8.17604C10.4014 6.09231 8.14556 2.44256 7.95254 2.30405M11.7028 8.19828C11.3812 7.67769 10.9976 7.05709 10.6005 6.41705C9.41068 4.50005 8.0977 2.40827 7.95254 2.30405M12.5231 8.88714C11.0548 6.57127 9.59848 4.24782 8.15418 1.91698C8.15168 1.62477 8.14488 1.33243 8.13807 1.04015L8.12968 0.667959C8.40638 0.785983 8.86771 1.19097 9.24375 1.52127C9.34264 1.60807 9.4354 1.68972 9.51751 1.75963L9.57353 1.8068L9.63454 1.85673C11.6118 3.44112 13.5699 5.04916 15.5088 6.68045L15.5145 17.5895L12.869 17.5881V16.324L12.8652 14.6825L14.4603 12.1212C14.1409 11.5511 13.7964 10.9925 13.4521 10.4345C13.2539 10.1133 13.0559 9.79217 12.8629 9.46916M12.5231 8.88714C12.5229 8.81591 12.5197 8.70447 12.5159 8.5678M12.5231 8.88714C12.5231 8.88602 12.5231 8.8849 12.5231 8.88377C12.5231 8.81241 12.5197 8.70232 12.5159 8.5678M12.5159 8.5678V8.56081V8.5536V8.54985V8.54518C12.4984 7.89264 12.4667 6.70601 12.6331 6.53112C12.6375 6.52635 12.6422 6.52197 12.6474 6.51774L12.6599 6.50759L12.6724 6.49744L12.8191 6.56163C12.9323 7.07726 12.9051 7.88164 12.8808 8.59829M12.8808 8.59829L12.8804 8.60875L12.879 8.65254C12.8692 8.9511 12.8602 9.23258 12.8629 9.46916M12.8808 8.59829C12.8792 8.64503 12.8779 8.69212 12.8763 8.738C12.8677 9.00473 12.8604 9.25528 12.8629 9.46916M3.77954 15.9961C3.80313 16.0007 3.82717 16.0026 3.87979 16.0089C3.73667 15.7561 3.60218 15.4951 3.41824 15.2687C3.40417 15.4654 3.41824 15.6659 3.45407 15.8942M3.77954 15.9961C3.73463 15.9875 3.69154 15.9695 3.45407 15.8942M3.77954 15.9961C3.73508 15.9876 3.69335 15.9702 3.46292 15.897C3.45997 15.8961 3.45702 15.8952 3.45407 15.8942M15.0953 5.89611L15.109 5.90738L15.2462 6.02163L15.3564 6.1136L15.8443 6.51946L15.8452 17.8572C13.2467 20.0028 10.6318 22.1288 8.00131 24.2347C7.83438 24.2181 3.5017 20.6547 1.30077 18.8445L1.23931 18.7939C0.675243 18.3301 0.260642 17.9891 0.107321 17.8653L0.0996094 6.52565L7.93553 0.105225C8.19092 0.1414 13.0827 4.21834 15.0953 5.89611ZM12.8715 10.1427C13.1915 10.5427 13.4664 11.0332 13.7327 11.5083C13.8096 11.6452 13.8856 11.7808 13.9618 11.9126C13.9996 11.9781 14.0375 12.0427 14.0756 12.106L13.923 12.3553L13.7645 12.6129C13.6261 12.8367 13.4871 13.0599 13.3469 13.2826L12.8629 14.0678C12.8624 13.6903 12.8593 13.3121 12.8561 12.9335C12.8484 12.0027 12.8409 11.0703 12.8715 10.1427ZM7.74887 0.688627L7.78675 0.721102C7.86318 0.948079 7.84186 1.29845 7.82349 1.60185C7.81669 1.71319 7.81034 1.81822 7.8092 1.90849L3.39624 8.95113C3.39737 8.84224 3.40055 8.72725 3.40485 8.60826L3.40894 8.49908L3.41778 8.28577C3.44024 7.75355 3.46428 7.1819 3.40508 6.73437C3.38852 6.60898 3.3511 6.56368 3.25403 6.4903L3.15197 6.50963C2.99774 6.74957 3.04197 8.23462 3.06601 9.0437L3.07304 9.29392C3.07508 9.36728 3.07644 9.42836 3.07689 9.4741C2.5473 10.3397 2.02497 11.2096 1.50944 12.0836L3.08007 14.6593L3.07349 16.1322L3.06827 17.59L0.430746 17.5861L0.440726 6.68626C2.01204 5.33084 3.63234 4.02297 5.25128 2.71633C6.08661 2.04223 6.92148 1.36845 7.74887 0.688627ZM6.05576 16.6718C5.55951 16.5834 5.06371 16.495 4.57041 16.455L4.9519 17.0675C5.9689 18.6996 6.98839 20.3363 7.96094 21.9931C8.45401 21.1977 8.94233 20.3995 9.42497 19.5984C9.64338 19.2463 9.85998 18.8928 10.0766 18.5393C10.5055 17.8389 10.9348 17.1384 11.3782 16.4483C11.102 16.4874 10.7733 16.5441 10.4236 16.6044C9.55561 16.7542 8.55698 16.9266 7.90423 16.9088C7.29118 16.892 6.67336 16.7819 6.05576 16.6718ZM3.39873 16.278L4.14583 16.3859C4.64662 17.2166 5.15603 18.0422 5.66543 18.8678L5.66747 18.8714L5.68108 18.8936C6.39507 20.0513 7.10905 21.2091 7.79968 22.3811C7.79922 22.5637 7.79968 22.7463 7.80126 22.929C7.80331 23.1908 7.80716 23.4526 7.81306 23.7142L6.32385 22.4953L0.70246 17.9099C1.33321 17.9187 1.96464 17.9168 2.59584 17.9149C2.86233 17.9141 3.12883 17.9133 3.3951 17.9133C3.40984 17.3688 3.39987 16.8229 3.39873 16.278ZM12.3467 16.3027L12.3188 16.3053L11.8017 16.385L8.14442 22.337L8.13013 23.7099C8.36579 23.5178 8.60166 23.3263 8.83822 23.1355C9.1342 22.8964 9.43109 22.6583 9.72844 22.421C11.5792 20.9358 13.4149 19.4325 15.2357 17.9104L12.5356 17.9133C12.5372 17.7927 12.5422 17.667 12.5474 17.5388L12.5481 17.5277C12.5646 17.1296 12.5821 16.7084 12.5025 16.3456C12.4315 16.2923 12.4224 16.2935 12.3678 16.3002L12.3467 16.3027ZM3.07916 13.9052L3.07803 14.0275L2.68724 13.3891C2.52122 13.0839 2.33569 12.7846 2.15084 12.4867C2.06851 12.3538 1.98641 12.2212 1.90612 12.0885C2.13429 11.6603 2.38491 11.2414 2.6353 10.8232L2.82673 10.503C2.88978 10.3967 2.9526 10.2903 3.01452 10.1837C3.14539 10.3828 3.10638 12.4384 3.08642 13.4889C3.08324 13.6575 3.08052 13.8002 3.07916 13.9052ZM12.177 15.9417L12.2449 15.8206C12.3642 15.6067 12.4841 15.3919 12.6388 15.2014C12.6526 15.3982 12.6381 15.6659 12.6028 15.827C12.4088 15.8982 12.3301 15.9234 12.177 15.9417Z" stroke="black" stroke-width="0.2"/>
<path fill-rule="evenodd" clip-rule="evenodd" d="M11.7116 8.21237C11.551 7.9527 11.375 7.66782 11.1895 7.3678C11.3716 7.66235 11.5446 7.94235 11.7027 8.19818L11.7116 8.21237Z" fill="black" stroke="black" stroke-width="0.2"/>
<path fill-rule="evenodd" clip-rule="evenodd" d="M12.5229 8.88714C12.5227 8.81345 12.5195 8.69672 12.5156 8.55359V8.5608C12.5195 8.70064 12.5227 8.8147 12.5229 8.88714Z" fill="black"/>
<path d="M12.5156 8.5608V8.55359C12.5195 8.69672 12.5227 8.81345 12.5229 8.88714C12.5227 8.8147 12.5195 8.70064 12.5156 8.5608ZM12.5156 8.5608V8.56779C12.5195 8.70232 12.5229 8.81235 12.5229 8.88371" stroke="black" stroke-width="0.2"/>
<path fill-rule="evenodd" clip-rule="evenodd" d="M3.40723 8.52979C3.40156 8.67674 3.39702 8.81845 3.39566 8.95113C3.39679 8.84224 3.39997 8.72725 3.40428 8.60826C3.40519 8.58252 3.40632 8.55587 3.40723 8.52979ZM3.07632 9.47411C3.07564 9.3832 3.0711 9.23169 3.06543 9.0437L3.07246 9.29392C3.0745 9.36728 3.07586 9.42836 3.07632 9.47411Z" fill="black" stroke="black" stroke-width="0.2"/>
<path fill-rule="evenodd" clip-rule="evenodd" d="M12.5371 17.8365C12.5396 17.7362 12.5439 17.6327 12.5482 17.5277L12.5475 17.5388C12.5435 17.6404 12.5394 17.7394 12.5371 17.8365Z" fill="black"/>
<path d="M12.5475 17.5388L12.5482 17.5277C12.5439 17.6327 12.5396 17.7362 12.5371 17.8365C12.5394 17.7394 12.5435 17.6404 12.5475 17.5388ZM12.5475 17.5388C12.5448 17.6043 12.5421 17.6687 12.5401 17.7325C12.5389 17.7648 12.538 17.7973 12.5373 17.8291" stroke="black" stroke-width="0.2"/>
<path fill-rule="evenodd" clip-rule="evenodd" d="M3.01392 10.1836C2.9393 10.3121 2.86354 10.4403 2.78711 10.5683L2.82612 10.5029C2.88917 10.3966 2.952 10.2902 3.01392 10.1836ZM3.07742 14.0274C3.07742 13.8989 3.08354 13.6098 3.09035 13.2446C3.08876 13.3306 3.08717 13.4124 3.08581 13.4888C3.08105 13.7371 3.07742 13.9292 3.07742 14.0274Z" fill="black" stroke="black" stroke-width="0.2"/>
<path d="M52.3199 22.5884V21.838H53.0815C53.3428 21.838 53.5668 21.8044 53.7535 21.7372C53.9402 21.6775 54.097 21.5692 54.2239 21.4124C54.3509 21.2556 54.4591 21.0391 54.5487 20.7628L56.5423 14.3564H57.3599L55.2767 20.998C55.1572 21.3788 54.993 21.685 54.7839 21.9164C54.5748 22.1554 54.3247 22.3271 54.0335 22.4316C53.7423 22.5362 53.41 22.5884 53.0367 22.5884H52.3199ZM54.2463 20.1356V19.43H55.3103V20.1356H54.2463ZM54.1455 20.1356L51.9951 14.3564H52.8575L54.9295 20.1356H54.1455Z" fill="black"/>
<path d="M48.2441 20.2812V14.3564H48.9161V16.8316H48.8489C48.8489 15.9655 49.0393 15.3271 49.4201 14.9164C49.8009 14.4983 50.3983 14.2892 51.2121 14.2892H51.4025V15.0508H51.0553C50.4132 15.0508 49.9241 15.2188 49.5881 15.5548C49.2521 15.8833 49.0841 16.3687 49.0841 17.0108V20.2812H48.2441Z" fill="black"/>
<path d="M45.339 20.2812V12.1052H46.179V20.2812H45.339ZM44.4766 12.7884V12.1052H46.179V12.7884H44.4766Z" fill="black"/>
<path d="M41.0452 20.4716C40.5375 20.4716 40.0969 20.3857 39.7236 20.214C39.3503 20.0348 39.0441 19.7996 38.8052 19.5084C38.5663 19.2097 38.3871 18.8775 38.2676 18.5116C38.1556 18.1457 38.0996 17.7687 38.0996 17.3804V17.2236C38.0996 16.8428 38.1556 16.4695 38.2676 16.1036C38.3871 15.7377 38.5663 15.4092 38.8052 15.118C39.0441 14.8268 39.3428 14.5953 39.7012 14.4236C40.0671 14.2444 40.4927 14.1548 40.978 14.1548C41.5977 14.1548 42.1129 14.2929 42.5236 14.5692C42.9417 14.8455 43.2553 15.2001 43.4644 15.6332C43.6735 16.0588 43.778 16.518 43.778 17.0108V17.4476H38.4804V16.798H43.1956L42.9828 17.1228C42.9828 16.6823 42.9044 16.2977 42.7476 15.9692C42.5983 15.6332 42.3743 15.3719 42.0756 15.1852C41.7844 14.9911 41.4185 14.894 40.978 14.894C40.5151 14.894 40.1305 15.0023 39.8244 15.2188C39.5183 15.4353 39.2868 15.7228 39.13 16.0812C38.9807 16.4396 38.906 16.8465 38.906 17.302C38.906 17.75 38.9807 18.1607 39.13 18.534C39.2868 18.8999 39.522 19.1911 39.8356 19.4076C40.1567 19.6241 40.5599 19.7324 41.0452 19.7324C41.5604 19.7324 41.9785 19.6167 42.2996 19.3852C42.6207 19.1463 42.8185 18.8663 42.8932 18.5452H43.6772C43.6025 18.9409 43.4457 19.2844 43.2068 19.5756C42.9679 19.8593 42.6655 20.0796 42.2996 20.2364C41.9337 20.3932 41.5156 20.4716 41.0452 20.4716Z" fill="black"/>
<path d="M25.7835 20.9508C25.2758 20.9508 24.8352 20.865 24.4619 20.6932C24.0886 20.514 23.7824 20.2788 23.5435 19.9876C23.3046 19.689 23.1254 19.3567 23.0059 18.9908C22.8939 18.625 22.8379 18.2479 22.8379 17.8596V17.7028C22.8379 17.322 22.8939 16.9487 23.0059 16.5828C23.1254 16.217 23.3046 15.8884 23.5435 15.5972C23.7824 15.306 24.0811 15.0746 24.4395 14.9028C24.8054 14.7236 25.231 14.634 25.7163 14.634C26.336 14.634 26.8512 14.7722 27.2619 15.0484C27.68 15.3247 27.9936 15.6794 28.2027 16.1124C28.4118 16.538 28.5163 16.9972 28.5163 17.49V17.9268H23.2187V17.2772H27.9339L27.7211 17.602C27.7211 17.1615 27.6427 16.777 27.4859 16.4484C27.3366 16.1124 27.1126 15.8511 26.8139 15.6644C26.5227 15.4703 26.1568 15.3732 25.7163 15.3732C25.2534 15.3732 24.8688 15.4815 24.5627 15.698C24.2566 15.9146 24.0251 16.202 23.8683 16.5604C23.719 16.9188 23.6443 17.3258 23.6443 17.7812C23.6443 18.2292 23.719 18.6399 23.8683 19.0132C24.0251 19.3791 24.2603 19.6703 24.5739 19.8868C24.895 20.1034 25.2982 20.2116 25.7835 20.2116C26.2987 20.2116 26.7168 20.0959 27.0379 19.8644C27.359 19.6255 27.5568 19.3455 27.6315 19.0244H28.4155C28.3408 19.4202 28.184 19.7636 27.9451 20.0548C27.7062 20.3386 27.4038 20.5588 27.0379 20.7156C26.672 20.8724 26.2539 20.9508 25.7835 20.9508Z" fill="black"/>
<path d="M18.8662 23.0341V22.2837H19.5382C19.8294 22.2837 20.0497 22.1978 20.199 22.0261C20.3558 21.8618 20.4342 21.6229 20.4342 21.3093V14.8357H21.2406V21.1525C21.2406 21.6154 21.1771 21.985 21.0502 22.2613C20.9307 22.5375 20.7366 22.7354 20.4678 22.8549C20.199 22.9743 19.8406 23.0341 19.3926 23.0341H18.8662ZM19.471 15.5077V14.8357H21.2406V15.5077H19.471ZM20.591 13.6373C20.3894 13.6373 20.2363 13.585 20.1318 13.4805C20.0347 13.3685 19.9862 13.2303 19.9862 13.0661C19.9862 12.9018 20.0347 12.7674 20.1318 12.6629C20.2363 12.5509 20.3894 12.4949 20.591 12.4949C20.7926 12.4949 20.9419 12.5509 21.039 12.6629C21.1361 12.7674 21.1846 12.9018 21.1846 13.0661C21.1846 13.2303 21.1361 13.3685 21.039 13.4805C20.9419 13.585 20.7926 13.6373 20.591 13.6373Z" fill="black"/>
<path d="M74.7347 11.4084C74.2269 11.4084 73.7864 11.3225 73.4131 11.1508C73.0397 10.9716 72.7336 10.7364 72.4947 10.4452C72.2557 10.1465 72.0765 9.81422 71.9571 9.44835C71.8451 9.08249 71.7891 8.70542 71.7891 8.31715V8.16035C71.7891 7.77955 71.8451 7.40622 71.9571 7.04035C72.0765 6.67449 72.2557 6.34595 72.4947 6.05475C72.7336 5.76355 73.0323 5.53209 73.3907 5.36035C73.7565 5.18115 74.1821 5.09155 74.6675 5.09155C75.2872 5.09155 75.8024 5.22969 76.2131 5.50595C76.6312 5.78222 76.9448 6.13689 77.1539 6.56995C77.3629 6.99555 77.4675 7.45475 77.4675 7.94755V8.38435H72.1699V7.73475H76.8851L76.6723 8.05955C76.6723 7.61902 76.5939 7.23449 76.4371 6.90595C76.2877 6.56995 76.0637 6.30862 75.7651 6.12195C75.4739 5.92782 75.108 5.83075 74.6675 5.83075C74.2045 5.83075 73.82 5.93902 73.5139 6.15555C73.2077 6.37209 72.9763 6.65955 72.8195 7.01795C72.6701 7.37635 72.5955 7.78329 72.5955 8.23875C72.5955 8.68675 72.6701 9.09742 72.8195 9.47075C72.9763 9.83662 73.2115 10.1278 73.5251 10.3444C73.8461 10.5609 74.2493 10.6692 74.7347 10.6692C75.2499 10.6692 75.668 10.5534 75.9891 10.322C76.3101 10.083 76.508 9.80302 76.5827 9.48195H77.3667C77.292 9.87769 77.1352 10.2212 76.8963 10.5124C76.6573 10.7961 76.3549 11.0164 75.9891 11.1732C75.6232 11.33 75.2051 11.4084 74.7347 11.4084Z" fill="black"/>
<path d="M67.1459 11.4083C66.7128 11.4083 66.3171 11.3299 65.9587 11.1731C65.6078 11.0088 65.3016 10.7848 65.0403 10.5011C64.7864 10.2099 64.5886 9.88134 64.4467 9.51547C64.3123 9.14214 64.2451 8.7464 64.2451 8.32827V8.17147C64.2451 7.76827 64.3123 7.38374 64.4467 7.01787C64.5811 6.64454 64.7715 6.316 65.0179 6.03227C65.2718 5.74107 65.5742 5.51334 65.9251 5.34907C66.2835 5.17734 66.683 5.09147 67.1235 5.09147C67.6238 5.09147 68.0643 5.19974 68.4451 5.41627C68.8259 5.6328 69.1321 5.9464 69.3635 6.35707C69.595 6.76027 69.7182 7.2568 69.7331 7.84667L69.3635 7.15227V3.04187H70.2035V11.2179H69.5315V8.58587H69.8003C69.7854 9.2056 69.6547 9.72827 69.4083 10.1539C69.1694 10.572 68.852 10.8856 68.4563 11.0947C68.068 11.3037 67.6312 11.4083 67.1459 11.4083ZM67.2579 10.6691C67.6611 10.6691 68.0233 10.5795 68.3443 10.4003C68.6729 10.2211 68.9304 9.9672 69.1171 9.63867C69.3038 9.30267 69.3971 8.91814 69.3971 8.48507V7.94747C69.3971 7.52934 69.3038 7.16347 69.1171 6.84987C68.9304 6.5288 68.6729 6.27867 68.3443 6.09947C68.0233 5.92027 67.6574 5.83067 67.2467 5.83067C66.8062 5.83067 66.4217 5.93894 66.0931 6.15547C65.7721 6.36454 65.5219 6.652 65.3427 7.01787C65.171 7.38374 65.0851 7.7944 65.0851 8.24987C65.0851 8.72027 65.1747 9.1384 65.3539 9.50427C65.5331 9.87014 65.787 10.1576 66.1155 10.3667C66.444 10.5683 66.8249 10.6691 67.2579 10.6691Z" fill="black"/>
<path d="M62.0571 11.218V9.43715H61.9227V7.33155C61.9227 6.89102 61.807 6.55502 61.5755 6.32355C61.3441 6.08462 60.9857 5.96515 60.5003 5.96515C60.2763 5.96515 60.0486 5.96889 59.8171 5.97635C59.5931 5.98382 59.3766 5.99502 59.1675 6.00995C58.9659 6.01742 58.7867 6.02862 58.6299 6.04355V5.30435C58.7942 5.28942 58.9622 5.27449 59.1339 5.25955C59.3057 5.24462 59.4811 5.23715 59.6603 5.23715C59.847 5.22969 60.0262 5.22595 60.1979 5.22595C60.8027 5.22595 61.2881 5.30062 61.6539 5.44995C62.0273 5.59929 62.2998 5.83449 62.4715 6.15555C62.6433 6.46915 62.7291 6.88729 62.7291 7.40995V11.218H62.0571ZM60.0523 11.3748C59.6342 11.3748 59.2646 11.3001 58.9435 11.1508C58.6225 11.0014 58.3723 10.7849 58.1931 10.5012C58.0214 10.2174 57.9355 9.87395 57.9355 9.47075C57.9355 9.07502 58.0251 8.73902 58.2043 8.46275C58.391 8.18649 58.6561 7.97742 58.9995 7.83555C59.3505 7.68622 59.7723 7.61155 60.2651 7.61155H62.0011V8.24995H60.2091C59.7387 8.24995 59.3766 8.36569 59.1227 8.59715C58.8763 8.82115 58.7531 9.11609 58.7531 9.48195C58.7531 9.85529 58.8838 10.154 59.1451 10.378C59.4065 10.5945 59.7611 10.7028 60.2091 10.7028C60.4854 10.7028 60.7505 10.6542 61.0043 10.5572C61.2582 10.4526 61.471 10.2809 61.6427 10.042C61.8145 9.79555 61.9078 9.45955 61.9227 9.03395L62.1691 9.38115C62.1393 9.82169 62.0347 10.1913 61.8555 10.49C61.6763 10.7812 61.4337 11.0014 61.1275 11.1508C60.8214 11.3001 60.463 11.3748 60.0523 11.3748Z" fill="black"/>
<path d="M47.79 11.2179V5.28189H48.462V7.77949H48.3276C48.3276 7.23442 48.4023 6.76402 48.5516 6.36829C48.7084 5.97256 48.9399 5.66642 49.246 5.44989C49.5522 5.22589 49.9404 5.11389 50.4108 5.11389H50.4444C50.9148 5.11389 51.3031 5.22216 51.6092 5.43869C51.9154 5.65522 52.1431 5.96136 52.2924 6.35709C52.4418 6.75282 52.5164 7.22696 52.5164 7.77949H52.2476C52.2476 7.23442 52.3223 6.76402 52.4716 6.36829C52.6284 5.97256 52.8599 5.66642 53.166 5.44989C53.4796 5.22589 53.8716 5.11389 54.342 5.11389H54.3756C54.846 5.11389 55.2343 5.22216 55.5404 5.43869C55.854 5.65522 56.0855 5.96136 56.2348 6.35709C56.3916 6.75282 56.47 7.22696 56.47 7.77949V11.2179H55.63V7.58909C55.63 7.06643 55.5031 6.65202 55.2492 6.34589C54.9954 6.03976 54.6295 5.88669 54.1516 5.88669C53.6588 5.88669 53.2668 6.04722 52.9756 6.36829C52.6919 6.68189 52.55 7.10749 52.55 7.64509V11.2179H51.71V7.58909C51.71 7.06643 51.5831 6.65202 51.3292 6.34589C51.0754 6.03976 50.7095 5.88669 50.2316 5.88669C49.7388 5.88669 49.3468 6.04722 49.0556 6.36829C48.7719 6.68189 48.63 7.10749 48.63 7.64509V11.2179H47.79Z" fill="black"/>
<path d="M42.6762 11.4083C42.2431 11.4083 41.8474 11.3299 41.489 11.1731C41.1381 11.0088 40.8319 10.7848 40.5706 10.5011C40.3167 10.2099 40.1189 9.88134 39.977 9.51547C39.8426 9.14214 39.7754 8.7464 39.7754 8.32827V8.17147C39.7754 7.76827 39.8426 7.38374 39.977 7.01787C40.1114 6.64454 40.3018 6.316 40.5482 6.03227C40.8021 5.74107 41.1045 5.51334 41.4554 5.34907C41.8138 5.17734 42.2133 5.09147 42.6538 5.09147C43.1541 5.09147 43.5946 5.19974 43.9754 5.41627C44.3562 5.6328 44.6623 5.9464 44.8938 6.35707C45.1253 6.76027 45.2485 7.2568 45.2634 7.84667L44.8938 7.15227V3.04187H45.7338V11.2179H45.0618V8.58587H45.3306C45.3157 9.2056 45.185 9.72827 44.9386 10.1539C44.6997 10.572 44.3823 10.8856 43.9866 11.0947C43.5983 11.3037 43.1615 11.4083 42.6762 11.4083ZM42.7882 10.6691C43.1914 10.6691 43.5535 10.5795 43.8746 10.4003C44.2031 10.2211 44.4607 9.9672 44.6474 9.63867C44.8341 9.30267 44.9274 8.91814 44.9274 8.48507V7.94747C44.9274 7.52934 44.8341 7.16347 44.6474 6.84987C44.4607 6.5288 44.2031 6.27867 43.8746 6.09947C43.5535 5.92027 43.1877 5.83067 42.777 5.83067C42.3365 5.83067 41.9519 5.93894 41.6234 6.15547C41.3023 6.36454 41.0522 6.652 40.873 7.01787C40.7013 7.38374 40.6154 7.7944 40.6154 8.24987C40.6154 8.72027 40.705 9.1384 40.8842 9.50427C41.0634 9.87014 41.3173 10.1576 41.6458 10.3667C41.9743 10.5683 42.3551 10.6691 42.7882 10.6691Z" fill="black"/>
<path d="M33.248 11.2179V5.29309H33.92V7.77949H33.7856C33.7856 7.22696 33.8678 6.75282 34.032 6.35709C34.1963 5.96136 34.4427 5.65522 34.7712 5.43869C35.0998 5.22216 35.5142 5.11389 36.0144 5.11389H36.048C36.7947 5.11389 37.351 5.34909 37.7168 5.81949C38.0827 6.28242 38.2656 6.93576 38.2656 7.77949V11.2179H37.4368V7.60029C37.4368 7.08509 37.295 6.67069 37.0112 6.35709C36.7275 6.04349 36.3318 5.88669 35.824 5.88669C35.3014 5.88669 34.8795 6.05096 34.5584 6.37949C34.2448 6.70056 34.088 7.12616 34.088 7.65629V11.2179H33.248Z" fill="black"/>
<path d="M30.5894 11.218V9.43715H30.455V7.33155C30.455 6.89102 30.3392 6.55502 30.1078 6.32355C29.8763 6.08462 29.5179 5.96515 29.0326 5.96515C28.8086 5.96515 28.5808 5.96889 28.3494 5.97635C28.1254 5.98382 27.9088 5.99502 27.6998 6.00995C27.4982 6.01742 27.319 6.02862 27.1622 6.04355V5.30435C27.3264 5.28942 27.4944 5.27449 27.6662 5.25955C27.8379 5.24462 28.0134 5.23715 28.1926 5.23715C28.3792 5.22969 28.5584 5.22595 28.7302 5.22595C29.335 5.22595 29.8203 5.30062 30.1862 5.44995C30.5595 5.59929 30.832 5.83449 31.0038 6.15555C31.1755 6.46915 31.2614 6.88729 31.2614 7.40995V11.218H30.5894ZM28.5846 11.3748C28.1664 11.3748 27.7968 11.3001 27.4758 11.1508C27.1547 11.0014 26.9046 10.7849 26.7254 10.5012C26.5536 10.2174 26.4678 9.87395 26.4678 9.47075C26.4678 9.07502 26.5574 8.73902 26.7366 8.46275C26.9232 8.18649 27.1883 7.97742 27.5318 7.83555C27.8827 7.68622 28.3046 7.61155 28.7974 7.61155H30.5334V8.24995H28.7414C28.271 8.24995 27.9088 8.36569 27.655 8.59715C27.4086 8.82115 27.2854 9.11609 27.2854 9.48195C27.2854 9.85529 27.416 10.154 27.6774 10.378C27.9387 10.5945 28.2934 10.7028 28.7414 10.7028C29.0176 10.7028 29.2827 10.6542 29.5366 10.5572C29.7904 10.4526 30.0032 10.2809 30.175 10.042C30.3467 9.79555 30.44 9.45955 30.455 9.03395L30.7014 9.38115C30.6715 9.82169 30.567 10.1913 30.3878 10.49C30.2086 10.7812 29.9659 11.0014 29.6598 11.1508C29.3536 11.3001 28.9952 11.3748 28.5846 11.3748Z" fill="black"/>
<path d="M19.9863 11.2179V3.04187H20.8263V7.66747L20.5799 7.85787C20.5799 7.30534 20.6583 6.82374 20.8151 6.41307C20.9794 6.0024 21.2221 5.68507 21.5431 5.46107C21.8717 5.2296 22.2823 5.11387 22.7751 5.11387H22.8199C23.5367 5.11387 24.0781 5.34907 24.4439 5.81947C24.8173 6.28987 25.0039 6.9432 25.0039 7.77947V11.2179H24.1751V7.60027C24.1751 7.07014 24.0295 6.652 23.7383 6.34587C23.4471 6.03974 23.0551 5.88667 22.5623 5.88667C22.0322 5.88667 21.6103 6.0584 21.2967 6.40187C20.9831 6.73787 20.8263 7.18214 20.8263 7.73467V11.2179H19.9863Z" fill="black"/>
<path d="M31.6475 20.1052L32.8227 14.7804H33.9147L35.2771 20.1052H34.6011L33.2387 14.8116H33.4883L32.3027 20.1052H31.6475ZM31.2003 20.1052V19.4708H32.1467V20.1052H31.2003ZM31.0131 20.1052L29.4219 14.6036H30.1707L31.7411 20.1052H31.0131ZM34.7779 20.1052V19.4708H35.7035V20.1052H34.7779ZM35.1835 20.1052L36.5563 14.6036H37.2739L35.8699 20.1052H35.1835Z" fill="black"/>
</svg>
