<svg aria-hidden="true" style="position: absolute; width: 0; height: 0; overflow: hidden;" version="1.1" xmlns="http://www.w3.org/2000/svg" xmlns:xlink="http://www.w3.org/1999/xlink">
<defs>
<symbol id="icon-logo" viewBox="0 0 101 32">
<path d="M19.577 7.646l0.018 0.015 0.954 0.794 0.001 14.703c-3.37 2.783-6.761 5.54-10.172 8.271-0.216-0.021-5.835-4.643-8.69-6.99l-0.080-0.066c-0.732-0.602-1.269-1.044-1.468-1.204l-0.010-14.706 10.162-8.326c0.331 0.047 6.675 5.334 9.285 7.51zM15.189 10.65l-0.011-0.018-0.002-0.003-0.016-0.026c-1.67-2.702-4.596-7.436-4.846-7.615l-5.897 9.395 0.013 6.522 1.186 1.946c0.519 0.074 1.043 0.159 1.568 0.243 1.066 0.172 2.138 0.346 3.196 0.433l1.411-0.212c1.090-0.165 2.18-0.33 3.272-0.476l1.19-1.847-0.001-6.628c-0.142-0.223-0.538-0.864-1.064-1.714zM16.693 13.154c-0.040 1.203-0.030 2.412-0.020 3.619 0.004 0.491 0.008 0.981 0.009 1.471l0.628-1.018c0.182-0.289 0.362-0.578 0.541-0.869l0.206-0.334 0.198-0.323c-0.049-0.082-0.099-0.166-0.148-0.251-0.099-0.171-0.197-0.347-0.297-0.524-0.345-0.616-0.702-1.252-1.117-1.771zM11.988 1.973c-0.488-0.428-1.086-0.954-1.445-1.107l0.011 0.483c0.009 0.379 0.018 0.758 0.021 1.137 1.873 3.023 3.762 6.036 5.666 9.039-0-0.092-0.004-0.237-0.009-0.414v-0.029c-0.023-0.846-0.064-2.385 0.152-2.612 0.006-0.006 0.012-0.012 0.019-0.017l0.016-0.013 0.016-0.013 0.19 0.083c0.147 0.669 0.111 1.712 0.080 2.641l-0.001 0.014-0.002 0.057c-0.013 0.387-0.024 0.752-0.021 1.059 0.25 0.419 0.507 0.835 0.764 1.252 0.447 0.724 0.893 1.448 1.307 2.187l-2.069 3.322 0.005 2.129v1.639l3.431 0.002-0.007-14.147c-2.515-2.116-5.054-4.201-7.618-6.256l-0.079-0.065-0.073-0.061c-0.107-0.091-0.227-0.197-0.355-0.309zM10.050 0.893c-1.073 0.882-2.156 1.755-3.239 2.63-2.1 1.695-4.201 3.391-6.239 5.148l-0.013 14.136 3.421 0.005 0.007-1.891 0.009-1.91-2.037-3.34c0.669-1.133 1.346-2.262 2.033-3.384-0.001-0.059-0.002-0.139-0.005-0.234l-0.009-0.325c-0.031-1.049-0.089-2.975 0.111-3.286l0.132-0.025c0.126 0.095 0.174 0.154 0.196 0.317 0.077 0.58 0.046 1.322 0.016 2.012l-0.011 0.277-0.005 0.142c-0.006 0.154-0.010 0.303-0.011 0.445l5.723-9.133c0.002-0.117 0.010-0.253 0.019-0.398 0.024-0.393 0.051-0.848-0.048-1.142l-0.049-0.042zM7.854 21.621c-0.644-0.115-1.287-0.229-1.926-0.281l0.495 0.794c1.319 2.117 2.641 4.239 3.902 6.388 0.639-1.032 1.273-2.067 1.899-3.106 0.283-0.457 0.564-0.915 0.845-1.374 0.556-0.908 1.113-1.817 1.688-2.712-0.358 0.051-0.784 0.124-1.238 0.203-1.126 0.194-2.421 0.418-3.267 0.395-0.795-0.022-1.596-0.165-2.397-0.307zM4.408 21.11c0.001 0.707 0.014 1.415-0.005 2.121-0.345 0-0.691 0.001-1.037 0.002-0.819 0.002-1.637 0.005-2.455-0.006l9.221 7.527c-0.008-0.339-0.013-0.679-0.015-1.018-0.002-0.237-0.003-0.474-0.002-0.71-0.896-1.52-1.822-3.021-2.748-4.523l-0.018-0.029-0.003-0.005c-0.661-1.071-1.321-2.141-1.971-3.219l-0.969-0.14zM16.012 21.142l-0.036 0.003-0.671 0.103-4.743 7.719-0.019 1.78c0.306-0.249 0.611-0.497 0.918-0.745 0.384-0.31 0.769-0.619 1.155-0.927 2.4-1.926 4.781-3.876 7.142-5.85l-3.502 0.004c0.002-0.156 0.009-0.319 0.015-0.486l0.001-0.014c0.021-0.516 0.044-1.063-0.059-1.533-0.092-0.069-0.104-0.068-0.175-0.059l-0.027 0.003zM3.994 18.033c0.002-0.136 0.005-0.321 0.009-0.54 0.026-1.362 0.076-4.028-0.093-4.286-0.080 0.138-0.162 0.276-0.244 0.414l-0.248 0.415c-0.325 0.542-0.65 1.086-0.946 1.641 0.104 0.172 0.211 0.344 0.317 0.516 0.24 0.386 0.48 0.774 0.696 1.17l0.507 0.828 0.001-0.159zM15.792 20.674c0.199-0.024 0.301-0.056 0.552-0.149 0.046-0.209 0.065-0.556 0.047-0.811-0.201 0.247-0.356 0.526-0.511 0.803l-0.088 0.157zM4.434 19.801c-0.018 0.255 0 0.515 0.046 0.811 0.308 0.098 0.364 0.121 0.422 0.132 0.031 0.006 0.062 0.008 0.13 0.017-0.186-0.328-0.36-0.666-0.599-0.96z"></path>
<path d="M15.189 10.65c-0.208-0.337-0.437-0.706-0.677-1.095 0.236 0.382 0.461 0.745 0.666 1.077l0.011 0.018z"></path>
<path d="M16.241 11.525c-0-0.096-0.004-0.247-0.009-0.433v0.009c0.005 0.181 0.009 0.329 0.009 0.423z"></path>
<path d="M4.42 11.062c-0.001 0.034-0.003 0.068-0.004 0.102-0.006 0.154-0.010 0.303-0.011 0.445 0.002-0.172 0.008-0.356 0.015-0.546zM3.991 12.286c-0.001-0.059-0.002-0.139-0.005-0.234l-0.009-0.325c0.007 0.244 0.013 0.44 0.014 0.558z"></path>
<path d="M16.259 23.131c0.003-0.13 0.009-0.264 0.014-0.4l-0.001 0.014c-0.005 0.132-0.011 0.26-0.014 0.386z"></path>
<path d="M3.91 13.207c-0.080 0.138-0.162 0.276-0.244 0.414l-0.051 0.085c0.099-0.166 0.197-0.332 0.294-0.499zM3.992 18.192c0-0.127 0.005-0.377 0.011-0.698 0.002-0.099 0.004-0.205 0.006-0.317-0.009 0.474-0.017 0.849-0.017 1.015z"></path>
<path d="M67.852 29.294v-0.973h0.988c0.339 0 0.629-0.044 0.871-0.131 0.242-0.077 0.445-0.218 0.61-0.421s0.305-0.484 0.421-0.843l2.586-8.308h1.060l-2.702 8.613c-0.155 0.494-0.368 0.891-0.639 1.191-0.271 0.31-0.595 0.533-0.973 0.668s-0.808 0.203-1.293 0.203h-0.929zM70.35 26.113v-0.915h1.38v0.915h-1.38zM70.219 26.113l-2.788-7.495h1.118l2.687 7.495h-1.017z"></path>
<path d="M62.566 26.302v-7.684h0.871v3.21h-0.087c0-1.123 0.247-1.951 0.741-2.484 0.494-0.542 1.269-0.813 2.324-0.813h0.247v0.988h-0.45c-0.833 0-1.467 0.218-1.903 0.654-0.436 0.426-0.654 1.056-0.654 1.888v4.241h-1.089z"></path>
<path d="M58.798 26.302v-10.603h1.089v10.603h-1.089zM57.68 16.585v-0.886h2.208v0.886h-2.208z"></path>
<path d="M53.23 26.549c-0.658 0-1.23-0.111-1.714-0.334-0.484-0.232-0.881-0.537-1.191-0.915-0.31-0.387-0.542-0.818-0.697-1.293-0.145-0.474-0.218-0.964-0.218-1.467v-0.203c0-0.494 0.073-0.978 0.218-1.452 0.155-0.474 0.387-0.901 0.697-1.278s0.697-0.678 1.162-0.901c0.474-0.232 1.026-0.349 1.656-0.349 0.804 0 1.472 0.179 2.004 0.537 0.542 0.358 0.949 0.818 1.22 1.38 0.271 0.552 0.407 1.147 0.407 1.787v0.566h-6.87v-0.842h6.115l-0.276 0.421c0-0.571-0.102-1.070-0.305-1.496-0.194-0.436-0.484-0.775-0.871-1.017-0.378-0.252-0.852-0.378-1.423-0.378-0.6 0-1.099 0.14-1.496 0.421s-0.697 0.654-0.901 1.118c-0.194 0.465-0.291 0.993-0.291 1.583 0 0.581 0.097 1.114 0.291 1.598 0.203 0.474 0.508 0.852 0.915 1.133 0.416 0.281 0.939 0.421 1.569 0.421 0.668 0 1.21-0.15 1.627-0.45 0.416-0.31 0.673-0.673 0.77-1.089h1.017c-0.097 0.513-0.3 0.959-0.61 1.336-0.31 0.368-0.702 0.654-1.176 0.857s-1.017 0.305-1.627 0.305z"></path>
<path d="M33.438 27.17c-0.658 0-1.23-0.111-1.714-0.334-0.484-0.232-0.881-0.537-1.191-0.915-0.31-0.387-0.542-0.818-0.697-1.293-0.145-0.474-0.218-0.964-0.218-1.467v-0.203c0-0.494 0.073-0.978 0.218-1.452 0.155-0.474 0.387-0.901 0.697-1.278s0.697-0.678 1.162-0.901c0.475-0.232 1.026-0.349 1.656-0.349 0.804 0 1.472 0.179 2.004 0.537 0.542 0.358 0.949 0.818 1.22 1.38 0.271 0.552 0.407 1.147 0.407 1.787v0.566h-6.87v-0.842h6.115l-0.276 0.421c0-0.571-0.102-1.070-0.305-1.496-0.194-0.436-0.484-0.775-0.871-1.017-0.378-0.252-0.852-0.378-1.423-0.378-0.6 0-1.099 0.14-1.496 0.421s-0.697 0.654-0.901 1.118c-0.194 0.465-0.291 0.993-0.291 1.583 0 0.581 0.097 1.114 0.291 1.598 0.203 0.474 0.508 0.852 0.915 1.133 0.416 0.281 0.939 0.421 1.569 0.421 0.668 0 1.21-0.15 1.627-0.45 0.416-0.31 0.673-0.673 0.77-1.089h1.017c-0.097 0.513-0.3 0.959-0.61 1.336-0.31 0.368-0.702 0.654-1.176 0.857s-1.017 0.305-1.627 0.305z"></path>
<path d="M24.466 29.872v-0.973h0.872c0.378 0 0.663-0.111 0.857-0.334 0.203-0.213 0.305-0.523 0.305-0.93v-8.395h1.046v8.192c0 0.6-0.082 1.080-0.247 1.438-0.155 0.358-0.407 0.615-0.755 0.77s-0.813 0.232-1.394 0.232h-0.683zM25.251 20.111v-0.872h2.295v0.872h-2.295zM26.703 17.686c-0.261 0-0.46-0.068-0.596-0.203-0.126-0.145-0.189-0.324-0.189-0.537s0.063-0.387 0.189-0.523c0.136-0.145 0.334-0.218 0.596-0.218s0.455 0.073 0.581 0.218c0.126 0.136 0.189 0.31 0.189 0.523s-0.063 0.392-0.189 0.537c-0.126 0.136-0.32 0.203-0.581 0.203z"></path>
<path d="M96.921 14.795c-0.658 0-1.23-0.111-1.714-0.334-0.484-0.232-0.881-0.537-1.191-0.915-0.31-0.387-0.542-0.818-0.697-1.293-0.145-0.475-0.218-0.963-0.218-1.467v-0.203c0-0.494 0.073-0.978 0.218-1.452 0.155-0.475 0.387-0.901 0.697-1.278s0.697-0.678 1.162-0.901c0.475-0.232 1.026-0.349 1.656-0.349 0.803 0 1.471 0.179 2.004 0.537 0.542 0.358 0.948 0.818 1.22 1.38 0.271 0.552 0.406 1.147 0.406 1.787v0.566h-6.87v-0.842h6.115l-0.276 0.421c0-0.571-0.101-1.070-0.305-1.496-0.193-0.436-0.484-0.775-0.871-1.017-0.377-0.252-0.852-0.378-1.423-0.378-0.6 0-1.1 0.14-1.496 0.421s-0.697 0.654-0.9 1.118c-0.194 0.465-0.291 0.993-0.291 1.583 0 0.581 0.097 1.114 0.291 1.598 0.203 0.475 0.508 0.852 0.915 1.133 0.416 0.281 0.939 0.421 1.569 0.421 0.668 0 1.21-0.15 1.627-0.45 0.417-0.31 0.673-0.673 0.77-1.089h1.016c-0.097 0.513-0.3 0.959-0.61 1.336-0.31 0.368-0.702 0.654-1.177 0.857s-1.016 0.305-1.627 0.305z"></path>
<path d="M87.079 14.795c-0.562 0-1.074-0.102-1.539-0.305-0.455-0.213-0.852-0.504-1.191-0.871-0.33-0.378-0.586-0.804-0.77-1.278-0.174-0.484-0.261-0.997-0.261-1.54v-0.203c0-0.523 0.087-1.022 0.261-1.496 0.174-0.484 0.421-0.91 0.741-1.278 0.33-0.378 0.722-0.673 1.177-0.886 0.465-0.223 0.983-0.334 1.554-0.334 0.649 0 1.22 0.14 1.714 0.421s0.891 0.688 1.191 1.22c0.3 0.523 0.46 1.167 0.479 1.932l-0.479-0.901v-5.331h1.089v10.603h-0.871v-3.413h0.349c-0.019 0.804-0.189 1.482-0.508 2.033-0.31 0.542-0.722 0.949-1.235 1.22-0.503 0.271-1.070 0.407-1.699 0.407zM87.225 13.836c0.523 0 0.992-0.116 1.409-0.349 0.426-0.232 0.76-0.562 1.002-0.988 0.242-0.436 0.363-0.934 0.363-1.496v-0.697c0-0.542-0.121-1.017-0.363-1.423-0.242-0.416-0.576-0.741-1.002-0.973-0.417-0.232-0.891-0.349-1.424-0.349-0.571 0-1.070 0.14-1.496 0.421-0.417 0.271-0.741 0.644-0.973 1.118-0.223 0.475-0.334 1.007-0.334 1.598 0 0.61 0.116 1.152 0.349 1.627s0.562 0.847 0.988 1.118c0.426 0.261 0.92 0.392 1.482 0.392z"></path>
<path d="M80.48 14.548v-2.309h-0.174v-2.731c0-0.571-0.15-1.007-0.45-1.307-0.3-0.31-0.765-0.465-1.394-0.465-0.291 0-0.586 0.005-0.886 0.014-0.29 0.010-0.571 0.024-0.842 0.044-0.261 0.010-0.494 0.024-0.697 0.044v-0.959c0.213-0.019 0.431-0.039 0.654-0.058s0.45-0.029 0.683-0.029c0.242-0.010 0.475-0.015 0.697-0.015 0.784 0 1.413 0.097 1.888 0.291 0.484 0.194 0.837 0.499 1.060 0.915 0.223 0.407 0.334 0.949 0.334 1.627v4.938h-0.871zM77.88 14.751c-0.542 0-1.021-0.097-1.438-0.291s-0.741-0.475-0.973-0.842c-0.223-0.368-0.334-0.813-0.334-1.336 0-0.513 0.116-0.949 0.349-1.307 0.242-0.358 0.586-0.629 1.031-0.813 0.455-0.194 1.002-0.291 1.642-0.291h2.251v0.828h-2.324c-0.61 0-1.080 0.15-1.409 0.45-0.32 0.291-0.479 0.673-0.479 1.147 0 0.484 0.17 0.871 0.508 1.162 0.339 0.281 0.799 0.421 1.38 0.421 0.358 0 0.702-0.063 1.031-0.189 0.329-0.136 0.605-0.358 0.828-0.668 0.223-0.32 0.344-0.755 0.363-1.307l0.319 0.45c-0.039 0.571-0.174 1.051-0.406 1.438-0.232 0.378-0.547 0.663-0.944 0.857s-0.861 0.291-1.394 0.291z"></path>
<path d="M61.977 14.548v-7.698h0.871v3.239h-0.174c0-0.707 0.097-1.317 0.291-1.83 0.203-0.513 0.504-0.91 0.901-1.191 0.397-0.29 0.901-0.436 1.511-0.436h0.044c0.61 0 1.114 0.14 1.511 0.421s0.692 0.678 0.886 1.191c0.194 0.513 0.291 1.128 0.291 1.845h-0.349c0-0.707 0.097-1.317 0.29-1.83 0.203-0.513 0.504-0.91 0.9-1.191 0.406-0.29 0.915-0.436 1.525-0.436h0.044c0.61 0 1.114 0.14 1.511 0.421 0.406 0.281 0.707 0.678 0.9 1.191 0.204 0.513 0.305 1.128 0.305 1.845v4.459h-1.089v-4.706c0-0.678-0.164-1.215-0.494-1.612s-0.803-0.596-1.424-0.596c-0.639 0-1.147 0.208-1.525 0.625-0.368 0.407-0.552 0.959-0.552 1.656v4.633h-1.090v-4.706c0-0.678-0.165-1.215-0.494-1.612s-0.804-0.596-1.423-0.596c-0.639 0-1.148 0.208-1.525 0.625-0.368 0.407-0.552 0.959-0.552 1.656v4.633h-1.089z"></path>
<path d="M55.345 14.795c-0.562 0-1.075-0.102-1.54-0.305-0.455-0.213-0.852-0.504-1.191-0.871-0.329-0.378-0.586-0.804-0.77-1.278-0.174-0.484-0.261-0.997-0.261-1.54v-0.203c0-0.523 0.087-1.022 0.261-1.496 0.174-0.484 0.421-0.91 0.741-1.278 0.329-0.378 0.721-0.673 1.176-0.886 0.465-0.223 0.983-0.334 1.554-0.334 0.649 0 1.22 0.14 1.714 0.421s0.891 0.688 1.191 1.22c0.3 0.523 0.46 1.167 0.479 1.932l-0.479-0.901v-5.331h1.089v10.603h-0.871v-3.413h0.349c-0.019 0.804-0.189 1.482-0.508 2.033-0.31 0.542-0.721 0.949-1.235 1.22-0.504 0.271-1.070 0.407-1.699 0.407zM55.49 13.836c0.523 0 0.992-0.116 1.409-0.349 0.426-0.232 0.76-0.562 1.002-0.988 0.242-0.436 0.363-0.934 0.363-1.496v-0.697c0-0.542-0.121-1.017-0.363-1.423-0.242-0.416-0.576-0.741-1.002-0.973-0.416-0.232-0.891-0.349-1.423-0.349-0.571 0-1.070 0.14-1.496 0.421-0.416 0.271-0.741 0.644-0.973 1.118-0.223 0.475-0.334 1.007-0.334 1.598 0 0.61 0.116 1.152 0.349 1.627s0.562 0.847 0.988 1.118c0.426 0.261 0.92 0.392 1.482 0.392z"></path>
<path d="M43.118 14.548v-7.684h0.871v3.224h-0.174c0-0.717 0.107-1.331 0.32-1.845s0.533-0.91 0.959-1.191c0.426-0.281 0.963-0.421 1.612-0.421h0.044c0.968 0 1.69 0.305 2.164 0.915 0.474 0.6 0.712 1.448 0.712 2.542v4.459h-1.075v-4.692c0-0.668-0.184-1.206-0.552-1.612s-0.881-0.61-1.54-0.61c-0.678 0-1.225 0.213-1.641 0.639-0.407 0.416-0.61 0.968-0.61 1.656v4.619h-1.089z"></path>
<path d="M39.671 14.548v-2.309h-0.174v-2.731c0-0.571-0.15-1.007-0.45-1.307-0.3-0.31-0.765-0.465-1.394-0.465-0.291 0-0.586 0.005-0.886 0.014-0.29 0.010-0.571 0.024-0.842 0.044-0.261 0.010-0.494 0.024-0.697 0.044v-0.959c0.213-0.019 0.431-0.039 0.654-0.058s0.45-0.029 0.683-0.029c0.242-0.010 0.474-0.015 0.697-0.015 0.784 0 1.414 0.097 1.888 0.291 0.484 0.194 0.838 0.499 1.060 0.915 0.223 0.407 0.334 0.949 0.334 1.627v4.938h-0.871zM37.071 14.751c-0.542 0-1.022-0.097-1.438-0.291s-0.741-0.475-0.973-0.842c-0.223-0.368-0.334-0.813-0.334-1.336 0-0.513 0.116-0.949 0.349-1.307 0.242-0.358 0.586-0.629 1.031-0.813 0.455-0.194 1.002-0.291 1.641-0.291h2.251v0.828h-2.324c-0.61 0-1.080 0.15-1.409 0.45-0.32 0.291-0.479 0.673-0.479 1.147 0 0.484 0.169 0.871 0.508 1.162 0.339 0.281 0.799 0.421 1.38 0.421 0.358 0 0.702-0.063 1.031-0.189 0.329-0.136 0.605-0.358 0.828-0.668 0.223-0.32 0.344-0.755 0.363-1.307l0.32 0.45c-0.039 0.571-0.174 1.051-0.407 1.438-0.232 0.378-0.547 0.663-0.944 0.857s-0.862 0.291-1.394 0.291z"></path>
<path d="M25.919 14.548v-10.603h1.089v5.999l-0.32 0.247c0-0.717 0.102-1.341 0.305-1.874 0.213-0.533 0.528-0.944 0.944-1.235 0.426-0.3 0.959-0.45 1.598-0.45h0.058c0.93 0 1.632 0.305 2.106 0.915 0.484 0.61 0.726 1.457 0.726 2.542v4.459h-1.075v-4.692c0-0.687-0.189-1.23-0.566-1.627s-0.886-0.596-1.525-0.596c-0.687 0-1.235 0.223-1.641 0.668-0.407 0.436-0.61 1.012-0.61 1.728v4.517h-1.089z"></path>
<path d="M41.042 26.074l1.524-6.905h1.416l1.767 6.905h-0.877l-1.767-6.865h0.324l-1.538 6.865h-0.85zM40.462 26.074v-0.823h1.227v0.823h-1.227zM40.22 26.074l-2.064-7.135h0.971l2.037 7.135h-0.944zM45.102 26.074v-0.823h1.2v0.823h-1.2zM45.628 26.074l1.78-7.135h0.931l-1.821 7.135h-0.89z"></path>
</symbol>
</defs>
</svg>
